<?xml version="1.0" standalone="no"?>
<!DOCTYPE svg PUBLIC "-//W3C//DTD SVG 1.1//EN" "http://www.w3.org/Graphics/SVG/1.1/DTD/svg11.dtd" >
<svg xmlns="http://www.w3.org/2000/svg" xmlns:xlink="http://www.w3.org/1999/xlink" version="1.1">
<metadata>
Created by FontForge 20190801 at Wed Nov  4 11:29:31 2020
 By Unknown
</metadata>
<defs>
<font id="MaerklinPiktos" horiz-adv-x="952" >
  <font-face 
    font-family="Maerklin Piktos"
    font-weight="400"
    font-stretch="normal"
    units-per-em="1000"
    panose-1="2 0 6 3 0 0 0 0 0 0"
    ascent="810"
    descent="-190"
    x-height="801"
    cap-height="802"
    bbox="0 0 2288 810"
    underline-thickness="50"
    underline-position="-150"
    unicode-range="U+000D-00FC"
  />
<missing-glyph horiz-adv-x="432" 
d="M33 0v666h333v-666h-333zM66 33h267v600h-267v-600z" />
    <glyph glyph-name=".notdef" horiz-adv-x="432" 
d="M33 0v666h333v-666h-333zM66 33h267v600h-267v-600z" />
    <glyph glyph-name=".null" horiz-adv-x="0" 
 />
    <glyph glyph-name="uni000D" unicode="&#xd;" horiz-adv-x="333" 
 />
    <glyph glyph-name="space" unicode=" " horiz-adv-x="250" 
 />
    <glyph glyph-name="_003" horiz-adv-x="432" 
d="M33 0v666h333v-666h-333zM66 33h267v600h-267v-600z" />
    <glyph glyph-name="ampersand" unicode="&#x26;" horiz-adv-x="1904" 
d="M0 802h1755v-802h-1755v802zM1738 786h-1722v-770h1722v770zM111 298v206h252v-5q12 89 49 155l2 3h887l1 -3q38 -66 50 -150h248v-206h-251q-5 -26 -14.5 -50t-22.5 -47t-33 -53l-2 -3h-873l-2 3q-35 68 -43 150h-248zM1272 160q42 61 56 109t14 116v9q0 159 -51 248
h-869q-51 -93 -51 -248q0 -69 9 -126.5t36 -107.5h856zM685 416l-1 -22l-12 2q0 60 35 110l12 -4l-9 -23l42 -13q30 43 75 55v43h-22v11q30 10 55 10t55 -10v-11h-22v-43q45 -10 75 -55l42 13l-9 23l12 4q35 -50 35 -110l-12 -2l-6 22l-42 -14v-8q0 -44 -28 -80l25 -36
l18 13l8 -10q-33 -45 -91 -68l-9 10l19 13l-27 37q-19 -9 -46 -9q-29 0 -45 9l-27 -37l20 -13l-8 -10q-60 22 -93 68l8 10l20 -13l23 36q-28 36 -28 80v8zM858 514q-51 0 -86 -35t-35 -85t35 -85t85 -35q51 0 86 35t35 84q0 51 -35 86t-85 35zM128 314h231q-3 27 -3 80
q0 51 5 93h-233v-173zM1587 313v173h-233q5 -43 5 -93q0 -45 -5 -80h233zM857 329q-26 0 -47 19q-20 20 -20 46q0 28 20 48t47 20q28 0 48 -20t20 -48q0 -29 -20 -46q-24 -19 -48 -19z" />
    <glyph glyph-name="exclam" unicode="!" 
d="M800 550v-135h-157v36h-162v-36h-161v36h-159v-31h-161v148h161v-18h639zM726 220q-33 0 -59 23q-24 21 -24 55t25 59q24 24 58 24t56 -25q23 -25 23 -58t-23 -56q-22 -22 -56 -22zM406 220q-32 0 -58 23q-25 21 -25 55t25 59q26 24 58 24q34 0 56 -25q23 -25 23 -58
t-23 -56q-22 -22 -56 -22zM83 220q-30 0 -56 23q-24 23 -24 55q0 34 24 59q24 24 56 24q34 0 59 -25q24 -24 24 -58t-25 -56q-22 -22 -58 -22z" />
    <glyph glyph-name="numbersign" unicode="#" horiz-adv-x="1904" 
d="M0 802h1755v-802h-1755v802zM1738 786h-1180q-37 -6 -71 -29q-46 -31 -79.5 -82.5t-53 -123.5t-19.5 -150q0 -49 8 -96q-45 11 -78 26t-51 33q-18 17 -18 37q0 105 52 194t141 141q72 42 154 50h-527v-770h518q-77 9 -145 49q-89 52 -141 141t-52 195v0v0v0
q0 -65 48 -120q48 -56 130 -89q34 -82 89 -130q41 -37 88 -46h16q-20 8 -38 37q-25 39 -42 107q47 -8 96 -8q39 0 74.5 3t62 6.5t54 10.5t43 11.5t37.5 14.5t30.5 14t28 15t22.5 13q-46 -102 -141 -164q-74 -49 -161 -60h359l316 443l-114 155h69l78 -115l82 115h65
l-113 -150l127 -178h-69l-92 137l-285 -407h682v770zM1055 287v280h-56v47h56v49q0 81 90 81q19 0 35 -5v-47q-13 4 -30 4q-21 0 -31.5 -8t-10.5 -28v-46h64v-47h-64v-280h-53zM573 286h-128v329h128v-32q26 27 46 34q20 8 44 8q10 0 33.5 -3t47.5 -25l13 -16q34 45 95 45
q13 0 28 -2q29 -4 52 -22t33 -47q6 -17 6 -32v-237h-127v198q0 14 -10 24t-25 10t-26 -9.5t-11 -23.5v-199h-128v198q0 14 -11 24.5t-25 10.5q-15 0 -25.5 -10.5t-10.5 -25.5zM1533 614q15 0 26 -10.5t11 -26t-11 -26.5t-26.5 -11t-26.5 11t-11 26q0 10 5 18.5t13.5 13.5
t19.5 5zM1533 545q13 0 22 9.5t9 23t-9 22.5t-22.5 9t-22.5 -9t-9 -23q0 -9 4 -16t11.5 -11.5t16.5 -4.5zM1539 575l12 -19h-6l-12 19h-9v-19h-5v43h16q14 0 14 -12q0 -10 -10 -12zM1531 579q13 0 13 8q-1 7 -10 7h-10v-15h7z" />
    <glyph glyph-name="dollar" unicode="$" 
d="M0 802h802v-802h-802v802zM201 184h97v292h3l197 -292h104v434h-97v-291l-201 291h-103v-434z" />
    <glyph glyph-name="percent" unicode="%" 
d="M0 802h802v-802h-802v802zM201 184h97v292h3l197 -292h104v434h-97v-291l-201 291h-103v-434z" />
    <glyph glyph-name="parenleft" unicode="(" 
d="M0 802h802v-802h-802v802zM673 369v-16h-657v-33h657v-32h32v32h16v-97h-16v33h-32v-65h-87q0 43 -30 75q-32 32 -74 32q-43 0 -73 -31q-31 -31 -31 -76h-25q0 43 -30 75q-32 32 -74 32q-43 0 -73 -31t-30 -76h-26q0 43 -30 75q-32 32 -74 32v-26q34 0 57 -23
q24 -24 24 -58q0 -32 -23 -55q-26 -23 -58 -23v-97h770v770h-770v-97h207v-32q0 -27 -32 -29v-49h129v16l16 13h97l17 -13v-16h97v29q-16 1 -16 20v29q0 16 16 16h94q16 0 16 -16v-29q0 -19 -16 -20v-29h32v-16q15 -48 15 -97q0 -48 -15 -97zM16 641h175q19 0 19 16v16h-194
v-32zM16 498h65q16 0 16 16v94q0 5 -5 13q-6 7 -11 7h-65v-130zM16 369h162v259h-71q6 -14 6 -20v-94q0 -14 -9 -23q-11 -9 -23 -9h-65v-113zM563 191q0 -32 -23 -55q-26 -23 -58 -23q-34 0 -57 23q-24 22 -24 55q0 34 23 57q24 24 58 24t57 -23q24 -24 24 -58zM330 191
q0 -32 -23 -55q-26 -23 -58 -23q-34 0 -57 23q-24 22 -24 55q0 34 23 57q24 24 58 24t57 -23q24 -24 24 -58z" />
    <glyph glyph-name="parenright" unicode=")" 
d="M0 802h802v-802h-802v802zM673 369v-16h-657v-33h657v-32h32v32h16v-97h-16v33h-32v-65h-87q0 43 -30 75q-32 32 -74 32q-43 0 -73 -31q-31 -31 -31 -76h-25q0 43 -30 75q-32 32 -74 32q-43 0 -73 -31t-30 -76h-26q0 43 -30 75q-32 32 -74 32v-26q34 0 57 -23
q24 -24 24 -58q0 -32 -23 -55q-26 -23 -58 -23v-97h770v770h-770v-97h207v-32q0 -27 -32 -29v-49h129v16l16 13h97l17 -13v-16h97v29q-16 1 -16 20v29q0 16 16 16h94q16 0 16 -16v-29q0 -19 -16 -20v-29h32v-16q15 -48 15 -97q0 -48 -15 -97zM16 498h65q16 0 16 16v94
q0 5 -5 13q-6 7 -11 7h-65v-130zM563 191q0 -32 -23 -55q-26 -23 -58 -23q-34 0 -57 23q-24 22 -24 55q0 34 23 57q24 24 58 24t57 -23q24 -24 24 -58zM330 191q0 -32 -23 -55q-26 -23 -58 -23q-34 0 -57 23q-24 22 -24 55q0 34 23 57q24 24 58 24t57 -23q24 -24 24 -58z
" />
    <glyph glyph-name="asterisk" unicode="*" 
d="M0 803h803v-802h-803v802zM690 467q0 -48 -16 -97v-16h-658v-33h657v-32h32v32h17v-97h-16v33h-32v-65h-87q0 44 -30 75q-32 32 -74 32q-43 0 -73 -31q-31 -31 -31 -76h-25q0 44 -30 75q-32 32 -74 32q-43 0 -73 -31q-30 -32 -30 -76h-26q0 44 -30 75q-32 32 -75 32v-26
q32 0 58 -23q24 -24 24 -58q0 -32 -24 -55q-26 -23 -58 -23v-97h771v770h-771v-97h208v-32q0 -28 -33 -29v-49h129v16l16 13h97l17 -13v-16h98v29q-17 2 -17 20v29q0 16 16 16h94q17 0 17 -16v-29q0 -18 -17 -20v-29h32v-16q17 -56 17 -97zM16 642h175q20 0 20 16v16h-195
v-32zM16 499h65q17 0 17 16v94q0 5 -5 13q-6 7 -11 7h-66v-130zM16 370h163v259h-72q7 -14 7 -20v-94q0 -14 -9 -23q-11 -9 -23 -9h-66v-113zM600 207h58v97h-127q19 -10 44 -34q25 -34 25 -63zM133 221q5 15 19 47q15 20 42 36h-123q11 -6 39 -34q11 -15 23 -49zM367 221
q14 38 19 47q14 20 41 36h-123q13 -6 40 -34q11 -17 23 -49zM564 192q0 -32 -23 -55q-25 -23 -58 -23t-58 23q-24 23 -24 55q0 34 23 57q24 24 58 24q32 0 58 -23q24 -24 24 -58zM330 192h1q0 -32 -23 -55q-25 -23 -58 -23t-58 23q-24 23 -24 55q0 34 23 57q24 24 58 24
t57 -23q24 -24 24 -58zM483 250q-24 0 -41 -17t-17 -41t17 -41t41 -17t41 17t17 41t-17 41t-41 17zM249 133q25 0 42 17t17 41t-17 41t-41 17q-25 0 -42 -17t-17 -41t17 -41t41 -17zM15 133q24 0 41 17t17 41t-17 41t-41 17v-116z" />
    <glyph glyph-name="plus" unicode="+" horiz-adv-x="975" 
d="M0 6v804h804v-804h-804zM148 748h516v21h-516v-21zM430 648q26 6 45 25q18 17 26 39q5 18 5 29v4h-205l1 -9q3 -37 31 -64q16 -16 40 -24q10 -3 25 -3h8q15 0 24 3zM116 370q2 0 97 125t95 126t-6.5 6t-8.5 5v0q-1 0 -96 -125t-95 -126t6.5 -6t7.5 -5zM699 372q6 5 6 6
t-95 126q-94 124 -96 124q-1 0 -8 -4.5t-7 -5.5q0 -2 95 -127q96 -124 97 -124t8 5zM335 417q45 169 45 172t-1 3q-4 4 -18 4q0 -1 -45 -173l-45 -173q0 -1 3 -2t7 -1.5t6 -0.5h2zM529 244q8 2 8 3q0 2 -46 173q-45 173 -47 173t-9 -3q-8 -2 -8 -3l45 -171q45 -171 45 -172
q1 -1 4 -1t8 1zM258 48h78v26h-45v121h-33v-147zM346 48h84v25h-50v39h44v25h-44v33h48v25h-82v-147zM508 49q27 4 35 33q3 12 3 38q0 28 -3 41q-8 28 -31 32q-3 1 -35 1h-29v-146h27q29 0 33 1zM480 72v99l9 -1q15 0 20 -8q5 -10 5 -39q0 -42 -12 -49q-6 -2 -14 -2h-8z" />
    <glyph glyph-name="comma" unicode="," horiz-adv-x="975" 
d="M0 6v804h804v-804h-804zM15 21h774v774h-774v-774zM149 749v18h514v-18h-514zM390 645q-37 5 -61 32q-25 26 -26 59l-1 10h204l-1 -10q-2 -37 -30 -62q-26 -24 -61 -29h-11h-13zM109 375l-7 6l94 124q91 120 96 125l1 1q3 0 7 -5q2 -1 5 -3q2 -1 2 -2t-95 -126t-96 -125
q-2 2 -7 5zM596 492q-96 125 -97 125q0 2 7 6t8 4h1q5 -5 96 -125l94 -124l-7 -6q-2 -2 -5 -3q-2 -1 -2 -2zM316 422q46 171 46 173l8 -1q9 -2 9 -3v-1q0 -2 -4.5 -19.5t-15 -56.5t-25.5 -96q-46 -171 -46 -173l-17 4q0 1 45 173zM536 248q1 0 1 -1l-1 -1l-8 -2
q-2 0 -4 -0.5t-4 -1.5h-1q-1 0 -46 172t-45 173t8 3q5 1 7 1t2 -1q1 -1 46 -171q45 -169 45 -171zM259 49v145h31v-121h45v-24h-76zM348 121v72h39l40 1v-23h-49v-18l1 -17l22 -1h22v-22h-45v-21l1 -20l25 -1h25v-22h-82zM448 49v145h27q37 0 47 -6q16 -7 21 -32
q2 -14 2 -37q0 -24 -2 -34q-5 -24 -21 -31q-12 -5 -45 -5h-29zM502 73q7 4 10 13q2 12 2 33v12q0 12 -1 22q-3 11 -8 14.5t-17 3.5h-9v-100h10z" />
    <glyph glyph-name="slash" unicode="/" 
d="M0 802h802v-802h-802v802zM673 369v-16h-657v-33h657v-32h32v32h16v-97h-16v33h-32v-65h-87q0 43 -30 75q-32 32 -74 32q-43 0 -73 -31q-31 -31 -31 -76h-25q0 43 -30 75q-32 32 -74 32q-43 0 -73 -31t-30 -76h-26q0 43 -30 75q-32 32 -74 32v-26q34 0 57 -23
q24 -24 24 -58q0 -32 -23 -55q-26 -23 -58 -23v-97h770v770h-770v-97h207v-32q0 -27 -32 -29v-49h129v16l16 13h97l17 -13v-16h97v29q-16 1 -16 20v29q0 16 16 16h94q16 0 16 -16v-29q0 -19 -16 -20v-29h32v-16q15 -48 15 -97q0 -48 -15 -97zM16 641h175q19 0 19 16v16h-194
v-32zM657 378q16 54 16 88q0 33 -16 87v10h-29v65h6q7 0 7 6v16q0 7 -7 7h-81q-6 0 -6 -7v-16q0 -6 6 -6h10v-65h-130v23l-9 9h-78l-10 -9v-23h-145v-194h466v9zM16 498h65q16 0 16 16v94q0 5 -5 13q-6 7 -11 7h-65v-130zM16 369h162v259h-71q6 -14 6 -20v-94q0 -14 -9 -23
q-11 -9 -23 -9h-65v-113zM563 191q0 -32 -23 -55q-26 -23 -58 -23q-34 0 -57 23q-24 22 -24 55q0 34 23 57q24 24 58 24t57 -23q24 -24 24 -58zM330 191q0 -32 -23 -55q-26 -23 -58 -23q-34 0 -57 23q-24 22 -24 55q0 34 23 57q24 24 58 24t57 -23q24 -24 24 -58z" />
    <glyph glyph-name="zero" unicode="0" horiz-adv-x="1904" 
d="M601 535v-59q-13 49 -53 81q-41 32 -92 32q-63 0 -107 -44q-44 -47 -44 -107q0 -64 43 -106q43 -43 108 -43q51 0 92 29q39 29 53 77v-58q-49 -75 -145 -75q-72 0 -125 50q-52 51 -52 126q0 73 52 125q53 53 125 53q91 0 145 -81zM1286 395v-133h-117v133l-102 188l10 16
h113l43 -74l44 74h107l10 -21zM1142 352q0 -39 -30.5 -64.5t-75.5 -25.5h-168v337h161q10 0 22 -5q3 0 16 -5l-10 -11q5 -5 5 -10q-2 0 -14 3q-22 2 -34 2h-124v-289h139q39 0 64 22q27 22 27 58t-25 57q-10 5 -28 17v22q18 7 22 16q10 10 10 27q13 -19 17 -27
q-2 -13 -22 -26q24 -20 34 -30q14 -20 14 -46v-22zM632 284h140q76 0 86 58v-43q0 -7 -21 -20q-29 -17 -58 -17h-173v337h166q40 0 66 -21q20 -17 20 -37v-60q0 -9 -21 -31q13 -9 21 -17v-48q0 17 -10 27q-27 21 -38 26v22q32 18 32 48v12q0 15 -17 32q-21 21 -53 21h-140
v-289zM279 491v82h-65v-101h-123v101h-69v-289h69v133h118v-133h70v84q0 -1 4.5 -11.5t6.5 -14.5q5 -5 10 -17v-63h-112v133h-75v-133h-113v337h118v-101h70v101h112v-58q-21 -48 -21 -50zM1293 573l-48 -82h-22l-48 82h-81l103 -166v-123h63v123l103 166h-70zM584 438
q0 -55 -37 -91q-37 -37 -91 -37t-91 36q-38 38 -38 92q0 52 38 87q37 36 91 36q52 0 90 -35q38 -36 38 -88zM440 546l12 -48h4l15 48q-1 0 -2 1q-3 1 -5 1q-5 3 -8 3q-1 0 -2 -1q-3 0 -5 -1q-6 -3 -9 -3zM1416 551q6 0 10 -16l-106 -183v-133h-113v32h91v144l91 156h27z
M151 508h-27v43h27v-43zM483 546l-17 -48q12 0 12 -7l15 50q-5 5 -10 5zM413 541l17 -50q4 7 10 7l-10 48q-1 0 -9 -2q-6 -3 -8 -3zM375 513l43 -27l-16 49q-10 -5 -27 -22zM505 535l-12 -49l43 27q-9 12 -31 22zM1041 503v-17q0 -10 -10 -17q-11 -9 -28 -9h-49v65h54
q23 0 33 -22zM779 503v-17q0 -26 -39 -26h-43v65h48q13 0 23 -7q11 -8 11 -15zM408 476l-38 32l-10 -10l42 -26q0 4 6 4zM505 476l5 -4l38 26q0 6 -7 10zM750 491q0 2 1 3l1 2q0 7 -12 7h-16v-22h16q12 0 12 6v1l-2 2v1zM1014 491q0 10 -11 12h-22v-22h22q11 2 11 10z
M553 486l-38 -26v-5h48q0 21 -10 31zM350 471l-6 -16h53v5l-43 26q-1 -3 -2.5 -8t-1.5 -7zM456 486q-20 0 -34 -14t-14 -34q0 -19 14 -36q15 -17 34 -17q21 0 34 16q15 17 15 37t-14 34q-17 14 -35 14zM1147 422q-5 0 -5 -5l-15 16q-5 5 -16 17q1 6 9 15zM483 438
q0 -31 -27 -31q-12 0 -22 9q-11 11 -11 22q0 27 33 27q27 0 27 -27zM858 443l-5 7l5 10v-17zM471 438q0 3 -5 8q-4 4 -10 4q-16 0 -16 -12q0 -16 16 -16q15 0 15 16zM392 443h-48v-10h48v10zM521 433h48v10h-48v-10zM563 417h-48l38 -32q10 10 10 32zM354 385l43 32h-53
q3 -5 5 -16q1 -2 5 -16zM788 374q0 -37 -38 -37h-53v75h53q38 0 38 -38zM1051 374q0 -37 -43 -37h-54v75h54q43 0 43 -38zM360 374l10 -10l38 31q-6 0 -6 12zM548 374l-38 33q0 -4 -5 -12l36 -31q7 4 7 10zM1024 380q-1 10 -16 10h-27v-26h27q16 0 16 16zM767 380
q-6 10 -17 10h-26v-26h21q22 0 22 16zM144 347v-128h-111v32h91v134h54v-38h-34zM536 359l-43 26l12 -48q11 5 31 22zM402 337l16 48l-43 -26q17 -17 27 -22zM1029 251q58 0 93 34q32 32 32 79v20q0 -1 5 -7t5 -8v-97q0 -11 -28 -30q-32 -23 -64 -23h-171v32h128zM430 325
l10 49q-2 0 -10 6l-17 -48q10 0 17 -7zM493 332l-15 48q0 -6 -12 -6l17 -49q4 7 10 7zM1014 380q5 0 5 -6q-8 -5 -16 -5h-15v11h26zM750 380q7 0 7 -6q-8 -5 -12 -5h-15v11h20zM452 374l-12 -49h31l-15 49h-4zM312 315q23 -18 35 -35q35 -29 109 -29q91 0 145 59v-54h5
q-4 -9 -33 -23q-29 -16 -58 -19h-49q-71 12 -111 54q3 -11 3 -13q-10 5 -26 39v-75h-111v32h91v64zM890 251q-20 -32 -97 -32h-154v32h140q39 0 79 33v-33h32z" />
    <glyph glyph-name="one" unicode="1" 
d="M0 801h801v-801h-801v801zM785 785h-769v-769h769v769zM488 601q-45 0 -45 -36v-326q0 -36 45 -36h6v-22h-187v22h6q49 0 49 36v326q0 36 -49 36h-6v19h187v-19h-6z" />
    <glyph glyph-name="two" unicode="2" 
d="M0 801h801v-801h-801v801zM785 16v769h-769v-769h769zM575 184h-352v16h3v7h7q48 0 48 35v326q0 36 -48 36h-7v3h-3v20h352v-23h-7q-48 0 -48 -36v-326q0 -35 48 -35h7v-23zM443 242v326q0 36 -42 36q-39 0 -39 -36v-326q0 -35 39 -35q42 0 42 35z" />
    <glyph glyph-name="three" unicode="3" 
d="M0 0v801h801v-801h-801zM785 16v769h-769v-769h769zM646 601q-45 0 -45 -36v-326q0 -36 45 -36h10v-22h-511v22h10q45 0 45 36v326q0 36 -45 36h-10v19h511v-19h-10zM443 239q0 -36 38 -36q39 0 39 36v326q0 30 -39 36q-38 -5 -38 -36v-326zM281 239q0 -36 39 -36
q42 0 42 36v326q0 30 -42 36q-39 -6 -39 -36v-326z" />
    <glyph glyph-name="four" unicode="4" 
d="M0 0v801h801v-801h-801zM785 16v769h-769v-769h769zM698 601q-22 0 -33 -20q-17 -47 -135 -342l-26 -61h-23l-158 390q-13 33 -42 33q-39 0 -39 -33v-326q0 -35 49 -35h6v-23h-187v23h6q49 0 49 35v326q0 33 -49 33h-6v22h342v-22h-13q-32 0 -32 -16q0 -3 2 -9q0 -2 1 -6
v-5l107 -278h3l97 259q10 19 10 35q0 20 -42 20h-10v22h129v-22h-6z" />
    <glyph glyph-name="five" unicode="5" 
d="M0 0v801h801v-801h-801zM785 16v769h-769v-769h769zM620 607v-6h-6q-22 0 -33 -20l-135 -342q-17 -32 -26 -61h-23l-158 390q-13 33 -52 33h-6v6h-3v16h190v-22h-13q-32 0 -32 -16q0 -13 3 -20l107 -278h3l97 259q10 24 10 35q0 20 -42 20h-10v22h132v-16h-3z" />
    <glyph glyph-name="six" unicode="6" horiz-adv-x="1904" 
d="M0 0v802h1755v-802h-1755zM1738 16v770h-1722v-770h1722zM508 624v-16h-3v-6h-6q-49 0 -49 -33v-326q0 -36 49 -36h6v-6h3v-17h-194v17h4v6h6q49 0 49 36v326q0 33 -49 33h-6v6h-4v16h194zM1456 602h-6q-23 0 -32 -20q-12 -17 -140 -343q-11 -29 -22 -61h-26l-159 391
q-13 33 -51 33h-7v19h3v3h188v-16h-3v-6h-13q-33 0 -33 -16q0 -5 7 -20l107 -278l100 259q6 17 6 35q0 20 -38 20h-10v22h126v-3h3v-19zM910 382v-49h-207v49h207z" />
    <glyph glyph-name="seven" unicode="7" horiz-adv-x="1904" 
d="M0 802h1755v-802h-1755v802zM1738 786h-1722v-770h1722v770zM1405 628h129v-23h-3q-24 0 -36 -23l-136 -343q-25 -58 -26 -61h-22l-159 391q-15 36 -52 36h-6v23h188v-23h-13q-33 0 -33 -19q1 -4 2.5 -8.5t3 -7.5t1.5 -4l103 -275h4l100 259q6 16 6 36q0 19 -38 19h-13
v23zM738 605q-45 0 -45 -36v-326q0 -36 45 -36h10v-23h-511v23h9q46 0 46 36v326q0 36 -46 36h-9v23h511v-23h-10zM450 569q0 36 -39 36q-38 0 -38 -36v-326q0 -36 38 -36q39 0 39 36v326zM612 569q0 36 -39 36q-42 0 -42 -36v-326q0 -36 42 -36q39 0 39 36v326zM1055 385
v-49h-210v49h210z" />
    <glyph glyph-name="eight" unicode="8" 
d="M0 0v801h801v-801h-801zM785 16v769h-769v-769h769zM511 607v-6h-6q-22 0 -33 -20l-135 -342q-17 -32 -26 -61h-23l-158 390q-13 33 -52 33h-6v6h-3v16h190v-22h-13q-32 0 -32 -16q0 -13 3 -20l107 -278h3l97 259q10 24 10 35q0 20 -42 20h-10v22h132v-16h-3zM703 604
q-45 0 -45 -36v-333q0 -36 45 -36h6v-22h-187v22h6q49 0 49 36v333q0 36 -49 36h-6v19h187v-19h-6z" />
    <glyph glyph-name="nine" unicode="9" horiz-adv-x="2856" 
d="M1368 302v-80h-223v372h223v-81h-127v-59h127v-87h-127v-65h127zM1649 302v-80h-216v372h94v-292h122zM1810 222h-101v291h-81v81h262v-81h-80v-291zM2101 302l30 -80h-236l146 372h101l146 -372h-101l-96 246l-65 -166h75zM874 513l-115 -291h-96l147 372h110
q76 0 130 -54q55 -54 55 -133q0 -76 -54 -130q-55 -55 -131 -55h-126l30 80h96q41 0 71 32q30 33 30 73q0 43 -29 75q-30 31 -72 31h-46zM267 543l45 51h397l-21 -51h-421zM176 433l44 56h443l-19 -56h-468zM91 328l45 55h487l-19 -55h-513zM44 279h540l-26 -57h-558z" />
    <glyph glyph-name="colon" unicode=":" horiz-adv-x="1904" 
d="M0 0v802h1755v-802h-1755zM1738 16v770h-1722v-770h1722zM427 624v-16h-3v-6h-6q-49 0 -49 -33v-326q0 -36 49 -36h6v-6h3v-17h-194v17h4v6h6q49 0 49 36v326q0 33 -49 33h-6v6h-4v16h194zM1336 607v-6h-6q-22 0 -33 -20l-135 -342q-17 -32 -26 -61h-23l-158 390
q-13 33 -52 33h-6v6h-3v16h190v-22h-13q-32 0 -32 -16q0 -13 3 -20l107 -278h3l97 259q10 24 10 35q0 20 -42 20h-10v22h132v-16h-3zM1528 604q-45 0 -45 -36v-333q0 -36 45 -36h6v-22h-187v22h6q49 0 49 36v333q0 36 -49 36h-6v19h187v-19h-6zM790 382v-49h-207v49h207z
" />
    <glyph glyph-name="semicolon" unicode=";" 
d="M802 802v-802h-802v802h802zM367 221q4 26 19 47q29 29 41 36h-123q25 -13 40 -34q21 -40 23 -49zM658 207v97h-127q32 -14 45 -34q24 -34 24 -63h58zM721 223h-16v33h-32v-65h-87q0 45 -31 76q-30 31 -73 31q-42 0 -74 -32q-30 -32 -30 -75h-25q0 45 -31 76
q-30 31 -73 31t-73 -32t-30 -75h-130v16h109q0 29 24 63q28 28 45 34h-178v-288h770v770h-770v-113h592l49 -45v-275h-641v-33h657v-32h32v32h16v-97zM192 249q23 23 57 23t58 -24q23 -23 23 -57q0 -33 -24 -55q-23 -23 -57 -23q-32 0 -58 23q-23 23 -23 55q0 34 24 58z
M425 249q23 23 57 23t58 -24q23 -23 23 -57q0 -33 -24 -55q-23 -23 -57 -23q-32 0 -58 23q-23 23 -23 55q0 34 24 58zM425 192q0 -24 17 -41t41 -17t41 17t17 41t-17 41t-41 17t-41 -17t-17 -41zM191 192q0 -24 17 -41t41 -17t41 17t17 41t-17 41t-41 17t-41 -17t-17 -41z
M16 608h625v7l-46 42h-579v-49z" />
    <glyph glyph-name="less" unicode="&#x3c;" horiz-adv-x="1904" 
d="M0 0v802h1755v-802h-1755zM1738 16v770h-1722v-770h1722zM638 605q-45 0 -45 -36v-326q0 -36 45 -36h10v-23h-511v23h9q46 0 46 36v326q0 36 -46 36h-9v23h511v-23h-10zM1416 607v-6h-6q-22 0 -33 -20l-135 -342q-17 -32 -26 -61h-23l-158 390q-14 33 -52 33h-6v6h-3v16
h190v-22h-13q-32 0 -32 -16q0 -13 3 -20l107 -278h3l97 259q10 24 10 35q0 20 -42 20h-10v22h132v-16h-3zM1608 604q-45 0 -45 -36v-333q0 -36 45 -36h6v-22h-187v22h6q49 0 49 36v333q0 36 -49 36h-6v19h187v-19h-6zM350 569q0 36 -39 36q-38 0 -38 -36v-326q0 -36 38 -36
q39 0 39 36v326zM512 569q0 36 -39 36q-42 0 -42 -36v-326q0 -36 42 -36q39 0 39 36v326zM934 382v-49h-207v49h207z" />
    <glyph glyph-name="equal" unicode="=" 
d="M0 0v802h802v-802h-802zM16 608h625v7l-46 42h-579v-49zM16 353v-33h657v-32h32v32h16v-97h-16v33h-32v-65h-87q0 45 -31 76q-30 31 -73 31q-42 0 -74 -32q-30 -32 -30 -75h-25q0 45 -31 76q-30 31 -73 31t-73 -32t-30 -75h-130v-175h770v770h-770v-113h592l49 -45v-275
h-641zM192 249q23 23 57 23t58 -24q23 -23 23 -57q0 -33 -24 -55q-23 -23 -57 -23q-32 0 -58 23q-23 23 -23 55q0 34 24 58zM425 249q23 23 57 23t58 -24q23 -23 23 -57q0 -33 -24 -55q-23 -23 -57 -23q-32 0 -58 23q-23 23 -23 55q0 34 24 58zM16 369h625v226h-625v-226z
" />
    <glyph glyph-name="question" unicode="?" 
d="M0 0v802h802v-802h-802zM16 608v-29h641v-226h-641v-33h657v-32h32v32h16v-97h-16v33h-32v-65h-87q0 45 -31 76q-30 31 -73 31q-42 0 -74 -32q-30 -32 -30 -75h-25q0 45 -31 76q-30 31 -73 31t-73 -32t-30 -75h-130v-175h770v770h-770v-113h592l49 -45v-20h-641zM192 249
q23 23 57 23t58 -24q23 -23 23 -57q0 -33 -24 -55q-23 -23 -57 -23q-32 0 -58 23q-23 23 -23 55q0 34 24 58zM425 249q23 23 57 23t58 -24q23 -23 23 -57q0 -33 -24 -55q-23 -23 -57 -23q-32 0 -58 23q-23 23 -23 55q0 34 24 58z" />
    <glyph glyph-name="A" unicode="A" 
d="M0 802h802v-802h-802v802zM417 272v449h-32v-449h32zM272 531q0 25 -18 45q-19 19 -44 19q-26 0 -45 -19t-19 -45q0 -27 19 -46t45 -19q25 0 43 19q19 19 19 46z" />
    <glyph glyph-name="B" unicode="B" 
d="M0 802h802v-802h-802v802zM417 272v449h-32v-449h32zM272 531q0 25 -18 45q-19 19 -44 19q-26 0 -45 -19t-19 -45q0 -27 19 -46t45 -19q25 0 43 19q19 19 19 46zM673 129l-223 55v-113zM353 184l-224 -55l224 -58v113z" />
    <glyph glyph-name="C" unicode="C" 
d="M0 802h802v-802h-802v802zM417 272v449h-32v-449h32zM288 450q-25 0 -45 -19q-20 -20 -20 -46q0 -25 20 -45t45 -20q27 0 46 19t19 46t-19 46t-46 19zM173 431q-19 19 -44 19q-26 0 -45 -19t-19 -46t19 -46t45 -19q25 0 43 19q19 19 19 46t-18 46z" />
    <glyph glyph-name="D" unicode="D" 
d="M0 802h802v-802h-802v802zM417 272v449h-32v-449h32zM738 385v4q0 39 -28 50.5t-41 11.5q-24 0 -42 -20q-19 -21 -19 -46.5t18 -45t42 -19.5h5q26 0 45 19q20 20 20 46zM288 450q-25 0 -45 -19q-20 -20 -20 -46q0 -25 20 -45t45 -20q27 0 46 19t19 46t-19 46t-46 19z
M514 450q-26 0 -45 -19t-19 -46t19 -46t45 -19q27 0 46 19t19 46t-19 46t-46 19zM173 431q-19 19 -44 19q-26 0 -45 -19t-19 -46t19 -46t45 -19q25 0 43 19q19 19 19 46t-18 46z" />
    <glyph glyph-name="E" unicode="E" 
d="M0 802h802v-802h-802v802zM417 272v449h-32v-449h32zM288 450q-25 0 -45 -19q-20 -20 -20 -46q0 -25 20 -45t45 -20q27 0 46 19t19 46t-19 46t-46 19zM173 431q-19 19 -44 19q-26 0 -45 -19t-19 -46t19 -46t45 -19q25 0 43 19q19 19 19 46t-18 46zM673 129l-223 55v-113z
M353 184l-224 -55l224 -58v113z" />
    <glyph glyph-name="F" unicode="F" 
d="M0 802h802v-802h-802v802zM417 272v449h-32v-449h32zM272 531q0 25 -18 45q-19 19 -44 19q-26 0 -45 -19t-19 -45q0 -27 19 -46t45 -19q25 0 43 19q19 19 19 46zM288 450q-25 0 -45 -19q-20 -20 -20 -46q0 -25 20 -45t45 -20q27 0 46 19t19 46t-19 46t-46 19zM173 431
q-19 19 -44 19q-26 0 -45 -19t-19 -46t19 -46t45 -19q25 0 43 19q19 19 19 46t-18 46z" />
    <glyph glyph-name="G" unicode="G" 
d="M0 802h802v-802h-802v802zM417 272v449h-32v-449h32zM272 531q0 25 -18 45q-19 19 -44 19q-26 0 -45 -19t-19 -45q0 -27 19 -46t45 -19q25 0 43 19q19 19 19 46zM657 531q0 25 -17 45q-18 19 -45 19q-26 0 -45 -19t-19 -45q0 -27 19 -46t45 -19q28 0 44 19q18 19 18 46z
M738 385v4q0 39 -28 50.5t-41 11.5q-24 0 -42 -20q-19 -21 -19 -46.5t18 -45t42 -19.5h5q26 0 45 19q20 20 20 46zM173 431q-19 19 -44 19q-26 0 -45 -19t-19 -46t19 -46t45 -19q25 0 43 19q19 19 19 46t-18 46zM288 450q-25 0 -45 -19q-20 -20 -20 -46q0 -25 20 -45t45 -20
q27 0 46 19t19 46t-19 46t-46 19zM514 450q-26 0 -45 -19t-19 -46t19 -46t45 -19q27 0 46 19t19 46t-19 46t-46 19z" />
    <glyph glyph-name="H" unicode="H" 
d="M0 802h802v-802h-802v802zM417 272v449h-32v-449h32zM272 531q0 25 -18 45q-19 19 -44 19q-26 0 -45 -19t-19 -45q0 -27 19 -46t45 -19q25 0 43 19q19 19 19 46zM288 450q-25 0 -45 -19q-20 -20 -20 -46q0 -25 20 -45t45 -20q27 0 46 19t19 46t-19 46t-46 19zM173 431
q-19 19 -44 19q-26 0 -45 -19t-19 -46t19 -46t45 -19q25 0 43 19q19 19 19 46t-18 46zM673 129l-223 55v-113zM353 184l-224 -55l224 -58v113z" />
    <glyph glyph-name="I" unicode="I" 
d="M0 802h802v-802h-802v802zM417 272v449h-32v-449h32zM272 531q0 25 -18 45q-19 19 -44 19q-26 0 -45 -19t-19 -45q0 -27 19 -46t45 -19q25 0 43 19q19 19 19 46zM738 385v4q0 39 -28 50.5t-41 11.5q-24 0 -42 -20q-19 -21 -19 -46.5t18 -45t42 -19.5h5q26 0 45 19
q20 20 20 46zM288 450q-25 0 -45 -19q-20 -20 -20 -46q0 -25 20 -45t45 -20q27 0 46 19t19 46t-19 46t-46 19zM514 450q-26 0 -45 -19t-19 -46t19 -46t45 -19q27 0 46 19t19 46t-19 46t-46 19zM173 431q-19 19 -44 19q-26 0 -45 -19t-19 -46t19 -46t45 -19q25 0 43 19
q19 19 19 46t-18 46zM673 129l-223 55v-113zM353 184l-224 -55l224 -58v113z" />
    <glyph glyph-name="J" unicode="J" 
d="M0 802h802v-802h-802v802zM417 272v449h-32v-449h32zM354 548q-1 24 -20 42t-46 18q-26 0 -45 -18q-20 -18 -20 -43t20 -45t45 -20h5q24 0 42.5 20.5t18.5 45.5zM173 590q-19 18 -44 18t-45 -17q-19 -18 -19 -44q0 -27 19 -46t45 -19q25 0 43 19q19 19 19 46t-18 43z
M288 450q-25 0 -45 -19q-20 -20 -20 -46q0 -25 20 -45t45 -20q27 0 46 19t19 46t-19 46t-46 19zM173 431q-19 19 -44 19q-26 0 -45 -19t-19 -46t19 -46t45 -19q25 0 43 19q19 19 19 46t-18 46zM673 129l-223 55v-113zM353 184l-224 -55l224 -58v113z" />
    <glyph glyph-name="K" unicode="K" 
d="M0 802h802v-802h-802v802zM417 272v449h-32v-449h32zM738 385v4q0 39 -28 50.5t-41 11.5q-24 0 -42 -20q-19 -21 -19 -46.5t18 -45t42 -19.5h5q26 0 45 19q20 20 20 46zM703 414q12 -12 12 -29t-12 -28q-14 -11 -30 -11q-39 0 -39 39q0 16 11 30q11 12 28 12t30 -13z" />
    <glyph glyph-name="L" unicode="L" 
d="M0 802h802v-802h-802v802zM417 272v449h-32v-449h32zM738 385v4q0 39 -28 50.5t-41 11.5q-24 0 -42 -20q-19 -21 -19 -46.5t18 -45t42 -19.5h5q26 0 45 19q20 20 20 46zM514 450q-26 0 -45 -19t-19 -46t19 -46t45 -19q27 0 46 19t19 46t-19 46t-46 19zM703 414
q12 -12 12 -29t-12 -28q-14 -11 -30 -11q-39 0 -39 39q0 16 11 30q11 12 28 12t30 -13zM514 424q39 0 39 -39t-39 -39q-16 0 -30 11q-12 11 -12 28q0 18 13 28q14 11 29 11z" />
    <glyph glyph-name="M" unicode="M" 
d="M0 802h802v-802h-802v802zM417 272v449h-32v-449h32zM738 385v4q0 39 -28 50.5t-41 11.5q-24 0 -42 -20q-19 -21 -19 -46.5t18 -45t42 -19.5h5q26 0 45 19q20 20 20 46zM288 450q-25 0 -45 -19q-20 -20 -20 -46q0 -25 20 -45t45 -20q27 0 46 19t19 46t-19 46t-46 19z
M514 450q-26 0 -45 -19t-19 -46t19 -46t45 -19q27 0 46 19t19 46t-19 46t-46 19zM173 431q-19 19 -44 19q-26 0 -45 -19t-19 -46t19 -46t45 -19q25 0 43 19q19 19 19 46t-18 46zM703 414q12 -12 12 -29t-12 -28q-14 -11 -30 -11q-39 0 -39 39q0 16 11 30q11 12 28 12t30 -13
zM514 424q39 0 39 -39t-39 -39q-16 0 -30 11q-12 11 -12 28q0 18 13 28q14 11 29 11zM673 129l-223 55v-113zM353 184l-224 -55l224 -58v113z" />
    <glyph glyph-name="N" unicode="N" 
d="M0 802h802v-802h-802v802zM417 272v449h-32v-449h32zM272 531q0 25 -18 45q-19 19 -44 19q-26 0 -45 -19t-19 -45q0 -27 19 -46t45 -19q25 0 43 19q19 19 19 46zM738 385v4q0 39 -28 50.5t-41 11.5q-24 0 -42 -20q-19 -21 -19 -46.5t18 -45t42 -19.5h5q26 0 45 19
q20 20 20 46zM288 450q-25 0 -45 -19q-20 -20 -20 -46q0 -25 20 -45t45 -20q27 0 46 19t19 46t-19 46t-46 19zM514 450q-26 0 -45 -19t-19 -46t19 -46t45 -19q27 0 46 19t19 46t-19 46t-46 19zM173 431q-19 19 -44 19q-26 0 -45 -19t-19 -46t19 -46t45 -19q25 0 43 19
q19 19 19 46t-18 46zM703 414q12 -12 12 -29t-12 -28q-14 -11 -30 -11q-39 0 -39 39q0 16 11 30q11 12 28 12t30 -13zM514 424q39 0 39 -39t-39 -39q-16 0 -30 11q-12 11 -12 28q0 18 13 28q14 11 29 11zM673 129l-223 55v-113zM353 184l-224 -55l224 -58v113z" />
    <glyph glyph-name="O" unicode="O" 
d="M0 802h802v-802h-802v802zM417 272v449h-32v-449h32zM272 531q0 25 -18 45q-19 19 -44 19q-26 0 -45 -19t-19 -45q0 -27 19 -46t45 -19q25 0 43 19q19 19 19 46zM738 385v4q0 39 -28 50.5t-41 11.5q-24 0 -42 -20q-19 -21 -19 -46.5t18 -45t42 -19.5h5q26 0 45 19
q20 20 20 46zM288 450q-25 0 -45 -19q-20 -20 -20 -46q0 -25 20 -45t45 -20q27 0 46 19t19 46t-19 46t-46 19zM173 431q-19 19 -44 19q-26 0 -45 -19t-19 -46t19 -46t45 -19q25 0 43 19q19 19 19 46t-18 46zM703 414q12 -12 12 -29t-12 -28q-14 -11 -30 -11q-39 0 -39 39
q0 16 11 30q11 12 28 12t30 -13zM673 129l-223 55v-113zM353 184l-224 -55l224 -58v113z" />
    <glyph glyph-name="P" unicode="P" 
d="M0 802h802v-802h-802v802zM417 272v449h-32v-449h32zM272 531q0 25 -18 45q-19 19 -44 19q-26 0 -45 -19t-19 -45q0 -27 19 -46t45 -19q25 0 43 19q19 19 19 46zM738 385v4q0 39 -28 50.5t-41 11.5q-24 0 -42 -20q-19 -21 -19 -46.5t18 -45t42 -19.5h5q26 0 45 19
q20 20 20 46zM288 450q-25 0 -45 -19q-20 -20 -20 -46q0 -25 20 -45t45 -20q27 0 46 19t19 46t-19 46t-46 19zM173 431q-19 19 -44 19q-26 0 -45 -19t-19 -46t19 -46t45 -19q25 0 43 19q19 19 19 46t-18 46zM673 129l-223 55v-113zM353 184l-224 -55l224 -58v113z" />
    <glyph glyph-name="Q" unicode="Q" 
d="M0 802h802v-802h-802v802zM786 786h-770v-770h770v770zM402 105q-125 0 -213 88t-88 213t88 213t213 88t213 -88t88 -213t-88 -213t-213 -88z" />
    <glyph glyph-name="R" unicode="R" 
d="M0 802h802v-802h-802v802zM786 786h-770v-770h770v770zM410 687q119 0 203 -83.5t84 -202.5q0 -78 -38.5 -144t-104.5 -104t-144 -38h-278v161h278q34 0 63 17t45.5 45.5t16.5 62.5q0 52 -36.5 88.5t-88.5 36.5h-278v161h278zM277 546v121h-125v-121h125zM277 135v121
h-125v-121h125z" />
    <glyph glyph-name="S" unicode="S" 
d="M0 802h802v-802h-802v802zM243 278q-10 0 -10 7v35h-58v46h-159v-350h770v350h-158v-46h-59v-35q0 -7 -9 -7q-34 0 -49 92q-10 54 -10 125q0 201 59 201q9 0 9 -10v-33h59v-48h158v181h-770v-181h159v48h58v33q0 10 10 10q33 0 48 -84q10 -50 10 -117q0 -71 -10 -125
q-15 -92 -48 -92zM249 676v-378q19 20 29 93q7 46 7 101q0 163 -36 184zM556 298v378q-38 -21 -38 -184q0 -156 38 -194zM233 637h-42v-301h42v301zM569 336h42v301h-42v-301zM786 592h-158v-210h158v210zM16 382h159v210h-159v-210z" />
    <glyph glyph-name="T" unicode="T" 
d="M0 802h802v-802h-802v802zM243 278q-10 0 -10 7v35h-58v46h-159v-350h770v350h-158v-46h-59v-35q0 -7 -9 -7q-34 0 -49 92q-10 54 -10 125q0 201 59 201q9 0 9 -10v-33h59v-48h158v181h-770v-181h159v48h58v33q0 10 10 10q33 0 48 -84q10 -50 10 -117q0 -71 -10 -125
q-15 -92 -48 -92zM249 676v-378q19 20 29 93q7 46 7 101q0 163 -36 184zM556 298v378q-38 -21 -38 -184q0 -156 38 -194zM233 637h-42v-301h42v301zM569 336h42v301h-42v-301zM786 592h-158v-210h158v210zM16 382h159v210h-159v-210zM343 210h84v-26h-55v-32h52v-23h-52v-38
h58v-23h-87v142zM197 210h36l36 -97h3v97h26v-142h-33l-39 97v-97h-29v142zM469 68v142h45l23 -100l23 100h45v-142h-29v113l-26 -113h-26l-26 113h-3v-113h-26z" />
    <glyph glyph-name="U" unicode="U" 
d="M0 802h802v-802h-802v802zM327 278q-10 0 -10 7v35h-58v46h-243v-350h770v350h-243v-46h-58v-35q0 -7 -9 -7q-34 0 -49 92q-10 54 -10 125q0 201 59 201q9 0 9 -10v-33h58v-48h243v181h-770v-181h243v48h58v33q0 10 10 10q33 0 48 -84q10 -50 10 -117q0 -71 -10 -125
q-15 -92 -48 -92zM469 298v378q-36 -21 -36 -184q0 -158 36 -194zM333 676v-378q36 34 36 194q0 163 -36 184zM317 637h-42v-301h42v301zM485 336h42v301h-42v-301zM786 592h-243v-210h243v210zM16 382h243v210h-243v-210zM343 210h84v-26h-55v-32h52v-23h-52v-38h58v-23
h-87v142zM197 210h36l36 -97h3v97h26v-142h-33l-39 97v-97h-29v142zM469 68v142h45l23 -100l23 100h45v-142h-29v113l-26 -113h-26l-26 113h-3v-113h-26z" />
    <glyph glyph-name="V" unicode="V" 
d="M0 0v802h802v-802h-802zM786 16v770h-770v-770h770zM728 288l-29 181l-29 -181h-23l-29 181l-29 -181h-20l-32 181l-29 -181h-20l-22 133v-140h-243v-45h-58v-35q0 -10 -10 -10q-33 0 -48 92q-10 56 -10 125q0 203 58 203q10 0 10 -9v-33h58v-48h243l32 -194l33 187h16
l32 -187l29 187h20l29 -187l32 187h16l39 -226h-16zM149 592q-21 -12 -31 -85q-8 -59 -8 -103q0 -152 39 -190v378zM165 553v-301h42v301h-42zM223 505v-207h227v207h-227z" />
    <glyph glyph-name="W" unicode="W" 
d="M0 802h802v-802h-802v802zM16 482h33v65h-33v-65zM256 579h-191v-146h191v146zM369 433v72l-97 64v-136h97zM498 223l223 -71l-223 -71v26l143 45l-143 45v26zM162 152l142 -45v-26l-223 71l223 71v-26zM498 191v-23h-194v23h194zM304 136h194v-23h-194v23zM385 518v-101
h-272v-64q0 -33 -32 -33t-32 33v113h-33v-450h770v427h-26q-13 0 -13 16v26h-13q-47 0 -68 -42q-35 -68 -93 -68q-123 0 -123 123q0 42 30 69q28 28 80 28q38 0 38 -16q0 -5 -24 -12q-30 -9 -45 -21q-24 -18 -24 -48q0 -68 68 -68q22 0 46 29q37 45 44 52q32 29 71 29h13v26
q0 13 13 13h26v207h-770v-223h33v32h223z" />
    <glyph glyph-name="X" unicode="X" horiz-adv-x="1904" 
d="M0 0v802h1755v-802h-1755zM1738 16v770h-1722v-770h1722zM1533 402v-21h-35q-3 -80 -27 -141.5t-60 -90.5q-66 -56 -122 -61l-23 -2l-17 2q-56 8 -96 35q-30 20 -55 50q-60 69 -66 207l-476 3l1 19h30q7 137 68 211q65 76 148 86l16 2l22 -2q54 -6 121 -62q36 -29 63 -92
t33 -143h475zM1186 495h-37l3 16h-1q-13 -19 -37 -19q-27 0 -30 26v7q0 23 6 42q5 27 14 46q11 27 41 27q20 0 28 -17h1l16 75h39zM1352 698h39l-6 -31h-40zM430 689v-18h46v-38h-46v-38h46v-36h-46v-36h46v-36h-46v-37h46v-36h-46v-40h46v-37h-46v-35h45v-38h-45v-35h45
v-37h-45v-39h45v-38h-45v-15h-270v15h-44v38h44v39h-44v37h44v35h-44v38h44v35h-44v37h44v39h-44v37h44v36h-44v37h44v35h-44v36h43v39h-43v38h43l1 18h270zM1032 403q-8 128 -63 190q-56 68 -134 79l-15 1l-15 -1q-47 -7 -85 -33q-101 -63 -109 -236h421zM1245 637h38
l-4 -18q13 21 42 21l-8 -36h-5q-19 0 -26.5 -8t-10.5 -24l-16 -77h-40zM1627 560h-76q-2 -13 -2 -22q0 -20 11 -20q17 0 23 25h40q-13 -51 -68 -51q-48 0 -48 42q0 15 6 34q7 37 23 54.5t50 17.5q35 0 42 -16.5t7 -27.5q0 -16 -8 -36zM1378 637l-30 -142h-40l31 142h39z
M1404 495l-7 142h40l-3 -107h1l43 107h39l-69 -142h-44zM1162 567q5 20 5 31q0 17 -11 17t-16 -10t-11 -38q-4 -20 -4 -32q0 -18 10 -18t15 10t12 40zM1556 582h36q2 10 2 17q0 16 -13 16q-17 0 -25 -33zM1285 114q48 2 114 55q33 28 54.5 84t22.5 128h-419q0 -72 20.5 -128
t52.5 -84q66 -53 113 -55l21 -2zM582 109q-53 0 -53 43q0 12 4 27h45q-4 -11 -4 -19q0 -19 22 -19q24 0 28 25q1 3 1 5q0 10 -10.5 20t-26 17.5t-25 22t-9.5 29.5q0 5 1 11q13 61 84 61q53 0 53 -39q0 -11 -4 -26h-44q2 9 2 15q0 18 -16 18q-23 0 -28 -23q-1 -3 -1 -5
q0 -10 11 -20t26.5 -17.5t25 -21.5t9.5 -28q0 -7 -2 -14q-14 -62 -89 -62zM942 329l-6 -27h-2q-19 0 -23 -20l-4 -19h35l6 24l46 19l-9 -43h21l-5 -26h-22l-17 -80q-1 -4 -1 -8q0 -11 10 -11h8l-6 -26q-1 0 -9 -0.5t-13 -0.5q-17 0 -25 7.5t-8.5 12t-0.5 13.5l20 93h-35
l-27 -125h-42l26 125h-18l5 26h19q10 44 17 52q12 15 45 15q12 0 15 -1zM698 190q7 39 24.5 57.5t53.5 18.5q51 0 51 -42q0 -14 -6 -34q-10 -44 -26.5 -62.5t-52.5 -18.5q-35 0 -43 17t-8 30q0 15 7 34zM779 192q4 17 4 29q0 19 -13 19q-12 0 -18 -10t-12 -38t-6 -40
q0 -3 1 -9.5t13 -6.5t17.5 10t13.5 46z" />
    <glyph glyph-name="Y" unicode="Y" horiz-adv-x="1904" 
d="M0 802h1755v-802h-1755v802zM1738 786h-1722v-770h1722v770zM700 584q-69 0 -69 69.5t69 69.5t69 -69.5t-69 -69.5zM700 550h3q48 0 73 36l126 -228l-51 -1l-79 149l-1 -406h-64v204q-4 19 -7 46l-8 -46v-204h-64v406l-80 -149l-50 1l126 228q25 -36 73 -36h3zM256 470
q-53 0 -53 53.5t53 53.5t53 -53.5t-53 -53.5zM951 433v46h4q28 0 48.5 12.5t22.5 40.5h52v-255h-66v156h-61zM1217 356q0 -10 6.5 -17.5t15.5 -11t19 -3.5q18 0 30 11t12 30q0 7 -1.5 13.5t-5 11.5t-8.5 9t-11 6t-14 2q-28 0 -41 -20h-56l25 145h161v-53h-113l-10 -47h1
q19 19 50 19q26 0 45 -10t29.5 -28.5t10.5 -44.5q0 -46 -29 -70.5t-75 -24.5q-98 0 -103 83h62zM95 472h67l94 -99l94 99h67l-127 -135l127 -135h-67l-94 99l-94 -99h-67l128 135zM256 394l-63 68l5 9q19 -27 55 -27h3h3q37 0 56 27l5 -9zM1556 384v65h40v-65h66v-41h-66
v-65h-40v65h-65v41h65zM176 363l-37 -68h-38l51 94zM373 295l-36 67l24 26l51 -93h-39zM258 280l54 -57l-1 -126h-49v158q-2 10 -4 25zM201 223l54 57l-5 -25v-158h-49v126z" />
    <glyph glyph-name="Z" unicode="Z" horiz-adv-x="951" 
d="M801 0h-801v801h801v-801zM336 720v-32h129v32h-129zM339 672q-68 -41 -68 -113q0 -53 38 -91t92 -38q53 0 91 38t38 91q0 72 -68 113h-123zM714 652l-162 -42q7 -14 7 -25l161 45zM242 585q0 11 7 25l-162 42l-6 -22zM252 504q-7 13 -7 22l-164 -45l6 -22zM559 526
q-6 -17 -10 -22l165 -45l6 22zM300 436q-13 13 -19 16l-197 -197l16 -16zM520 452q-6 -3 -19 -16l200 -197l16 16zM452 410q-12 -6 -22 -6l45 -168l22 6zM371 404q-10 0 -22 6l-45 -168l22 -6zM669 174h-23q-4 -22 -36 -22h-3v-20h33v-96h29v138zM420 174h-23
q-4 -22 -35 -22h-3v-20h29v-96h32v138zM229 74q0 -42 42 -42q52 0 52 42q0 33 -26 33v3q23 0 23 29q0 35 -45 35q-46 0 -46 -42h29q0 23 17 23q16 0 16 -16q0 -23 -20 -23h-9v-19h9q20 0 20 -23q0 -22 -16 -22q-17 0 -17 26h-29v-4zM572 139q0 35 -46 35q-31 0 -42 -23
q-6 -13 -6 -54q0 -65 48 -65q49 0 49 52q0 42 -39 42q-20 0 -29 -13v7q0 35 19 35q13 0 13 -16h33zM103 149h65q-36 -48 -48 -113h32q12 75 45 116v19h-94v-22zM526 52q-16 0 -16 26q0 29 16 29q17 0 17 -29q0 -26 -17 -26z" />
    <glyph glyph-name="a" unicode="a" 
d="M802 0h-802v802h802v-802zM586 628h32v-356q-8 -83 -70 -142q-65 -59 -147 -59q-84 0 -146 59q-63 59 -71 142v514h-168v-770h770v770h-375v-472q0 -40 25 -65q26 -26 62 -26q35 0 61 26q27 27 27 65v314zM217 786v-498q0 -75 54 -129q55 -55 130 -55q63 0 107 35
q-24 -10 -49 -10h-13q-66 0 -116 47q-49 46 -49 112v498h-64zM314 786v-488q0 -58 39 -97q40 -39 97 -39q58 0 100 42q-27 -13 -52 -13q-50 0 -85 36q-35 38 -35 87v472h-64z" />
    <glyph glyph-name="b" unicode="b" 
d="M0 0v802h802v-802h-802zM786 16v770h-770v-770h770zM534 598h45v-35h-45v-36h45v-35h-45v-36h45v-35h-45v-39h45v-36h-45v-35h45v-36h-45v-36h45v-35h-45v-39h45v-36h-45v-16h-265v16h-46v36h46v39h-46v35h46v36h-46v36h46v35h-46v36h46v39h-46v35h46v36h-46v35h46v36
h-46v35h46v39h-46v36h46v16h265v-16h45v-36h-45v-39z" />
    <glyph glyph-name="c" unicode="c" horiz-adv-x="1904" 
d="M0 802h1755v-802h-1755v802zM1738 16v770h-1722v-770h1722zM1160 80q-87 0 -161 43t-117 117t-43 161q0 65 25.5 124.5t68.5 102.5t102.5 68.5t124.5 25.5q87 0 161 -43t117 -117t43 -161q0 -37 -8.5 -73t-24.5 -68t-38 -59.5t-49.5 -49.5t-59.5 -38t-68 -24.5t-73 -8.5z
M1376 617q-90 89 -216 89t-215.5 -89.5t-89.5 -215.5t89.5 -215.5t215.5 -89.5t215.5 89.5t89.5 215.5t-89 216zM582 637h-46v-39h46v-35h-46v-36h46v-35h-46v-36h46v-35h-46v-39h46v-36h-46v-35h46v-36h-46v-36h46v-35h-46v-39h46v-36h-46v-16h-265v16h-45v36h45v39h-45v35
h45v36h-45v36h45v35h-45v36h45v39h-45v35h45v36h-45v35h45v36h-45v35h45v39h-45v36h45v16h265v-16h46v-36zM1183 599l15 -43l-38 30l-38 -30l15 43l-32 25h41l14 38l15 -38h40zM1252 510l15 42l-32 25h40l14 38l15 -38h40l-31 -25l14 -42l-38 30zM993 509l15 42l-32 26h41
l14 37l15 -37h40l-32 -26l15 -42l-38 30zM1413 458l-31 -25l14 -42l-38 30l-37 -30l15 42l-32 25h40l14 38l15 -38h40zM963 420l-38 -30l15 42l-32 25h40l15 38l14 -38h40l-31 -25l14 -42zM1160 321q-33 0 -56.5 23.5t-23.5 56.5q0 22 10.5 40.5t29 29t40.5 10.5
q16 0 31 -6.5t25.5 -17t17 -25.5t6.5 -31t-6.5 -31t-17 -25.5t-25.5 -17t-31 -6.5zM1160 464q-26 0 -44.5 -18.5t-18.5 -44.5q0 -13 5 -24.5t13.5 -20t20 -13.5t24.5 -5q17 0 31.5 8.5t23 23t8.5 31.5t-8.5 31.5t-23 23t-31.5 8.5zM1350 323h39l-31 -25l15 -43l-38 30
l-38 -30l15 43l-32 25h41l14 38zM1041 322l-31 -25l14 -43l-37 30l-38 -30l15 43l-32 25h40l15 38l15 -38h39zM1107 234h40l-31 -25l14 -43l-38 30l-37 -30l15 43l-32 25h40l14 38zM1245 234h39l-31 -25l15 -42l-38 30l-38 -30l15 42l-32 25h41l14 38z" />
    <glyph glyph-name="d" unicode="d" 
d="M0 802h802v-802h-802v802zM786 786h-770v-770h770v770zM304 553v-42h-87v-365h-55v365h-75v42h75v39q0 59 22 87q26 33 88 33q32 0 45 -4v-42h-7l-6 2h-7q-5 0 -9.5 0.5t-7.5 1.5h-2q-41 0 -53 -24q-8 -18 -8 -57v-36h87zM307 146l172 213l-159 194h68l126 -155l123 155
h68l-158 -194l171 -213h-68l-139 171l-139 -171h-65z" />
    <glyph glyph-name="e" unicode="e" horiz-adv-x="1904" 
d="M0 802h1755v-802h-1755v802zM1738 786h-1722v-770h1722v770zM1120 553v-42h-87v-365h-55v365h-78v42h78v39q0 61 20 87q24 33 86 33q33 0 46 -4v-42h-2q-3 1 -7.5 1.5t-9.5 0.5t-10 0.5t-7 1.5h-3q-40 0 -52 -24q-6 -12 -6 -57v-36h87zM256 146v407h49v-68h3
q48 81 146 81q45 0 80 -20q38 -22 49 -61q37 81 139 81q149 0 149 -142v-278h-55v275q0 103 -104 103q-122 0 -122 -149v-229h-52v278q0 100 -94 100q-133 0 -133 -152v-226h-55zM1120 146l171 213l-158 194h68l126 -155l126 155h68l-162 -194l175 -213h-68l-142 171
l-136 -171h-68z" />
    <glyph glyph-name="f" unicode="f" horiz-adv-x="1904" 
d="M0 0v802h1755v-802h-1755zM1738 16v770h-1722v-770h1722zM1566 391q-2 -117 -67 -203q-65 -84 -156 -84q-93 0 -160 85t-70 202h-459v20h29q5 119 71 203q64 85 156 85t160 -86q67 -85 69 -202h460v-20h-33zM528 598h45v-35h-45v-36h45v-35h-45v-36h45v-35h-45v-39h45
v-36h-45v-35h45v-36h-45v-36h45v-35h-45v-39h45v-36h-45v-16h-265v16h-42v36h42v39h-42v35h42v36h-42v36h42v35h-42v36h42v39h-42v35h42v36h-42v35h42v36h-42v35h42v39h-42v36h42v16h265v-16h45v-36h-45v-39zM910 673q-85 0 -142 -76q-57 -75 -59 -186h404q-2 109 -61 186
q-58 76 -142 76zM1343 129q84 0 141 76q57 77 60 186h-405q3 -109 62 -186q57 -76 142 -76z" />
    <glyph glyph-name="g" unicode="g" 
d="M0 802h802v-802h-802v802zM786 786h-770v-770h770v770zM663 579q58 -82 58 -184l-19 -4l-10 36l-71 -23v-13q0 -77 -48 -135l42 -62l32 23l13 -16q-58 -76 -155 -114l-13 17l32 22l-45 62q-27 -13 -78 -13t-77 13l-46 -62l33 -22l-13 -17q-98 36 -156 114l13 16l33 -23
l42 62q-49 58 -49 135v13l-71 23l-10 -36l-19 4q0 99 58 184l20 -6l-13 -39l71 -23q49 75 126 94v74h-36v20q47 15 94 15t94 -15v-20h-36v-74q77 -19 127 -94l71 23l-13 39zM401 191q83 0 145 59q59 59 59 141q0 85 -60 145q-59 59 -144 59t-145 -60q-59 -59 -59 -144
q0 -83 60 -142q58 -58 144 -58zM514 391q0 -47 -33 -78q-35 -32 -80 -32q-44 0 -79 32q-34 33 -34 78q0 48 33 81q35 33 80 33q47 0 80 -33t33 -81z" />
    <glyph glyph-name="h" unicode="h" 
d="M0 802h802v-802h-802v802zM786 786h-770v-770h770v770zM401 100v605l165 -174v-259zM230 120q-117 111 -117 281q0 169 117 282l9 -10q-110 -116 -110 -272t110 -272zM298 188q-88 88 -88 213q0 126 88 214l9 -10q-84 -91 -84 -204t84 -204zM304 401q0 -85 62 -145
l-13 -13q-65 71 -65 158q0 88 65 159l13 -13q-62 -57 -62 -146zM602 272v259h55v-259h-55z" />
    <glyph glyph-name="i" unicode="i" 
d="M0 0v802h802v-802h-802zM786 16v770h-770v-770h770zM608 97v-16h-417v16h32v74h16v55l-158 217l272 236h3v4q-1 4 -1 6q-2 4 -2 7q0 25 29 25q0 -6 19 -6q20 0 20 6q29 0 29 -25l-2 -8q-2 -8 -2 -9l275 -236l-158 -217v-55h16v-74h29zM256 304h291v-42l142 181l-249 214
q-19 -52 -39 -52q-17 0 -39 48l-249 -210l143 -181v42zM514 226l29 36h-284l29 -36h226zM498 171v-19h-194v19h-32v-74h259v74h-33z" />
    <glyph glyph-name="j" unicode="j" 
d="M0 0v802h802v-802h-802zM786 16v770h-770v-770h770zM531 353q31 0 32 -33l-16 -97h-291v405h48q49 -7 49 -65q0 -45 -49 -49l20 -97h77q30 0 32 -32h-103l6 -49q173 17 195 17z" />
    <glyph glyph-name="k" unicode="k" 
d="M802 0h-802v802h802v-802zM336 721v-64h130v64h-130zM340 641q-68 -41 -68 -114q0 -53 38 -91t91 -38q51 0 92 38q38 38 38 91q0 73 -68 114h-123zM243 553q0 7 6 26l-162 42l-6 -23zM715 621l-162 -42q7 -20 7 -26l161 45zM252 472q-6 14 -6 23l-165 -45l6 -23zM560 495
q-2 -4 -10 -23l165 -45l6 23zM702 207l16 16l-197 201l-20 -20zM84 223l16 -16l201 197l-20 20zM294 81l78 291q-10 0 -23 6l-77 -294zM453 378q-13 -6 -23 -6l78 -291l23 3z" />
    <glyph glyph-name="l" unicode="l" 
d="M801 0h-801v801h801v-801zM336 720v-32h129v32h-129zM339 672q-68 -41 -68 -113q0 -53 38 -91t92 -38q53 0 91 38t38 91q0 72 -68 113h-123zM714 652l-162 -42q7 -14 7 -25l161 45zM242 585q0 11 7 25l-162 42l-6 -22zM252 504q-7 13 -7 22l-164 -45l6 -22zM559 526
q-6 -17 -10 -22l165 -45l6 22zM300 436q-13 13 -19 16l-197 -197l16 -16zM520 452q-6 -3 -19 -16l200 -197l16 16zM452 410q-12 -6 -22 -6l45 -168l22 6zM371 404q-10 0 -22 6l-45 -168l22 -6zM339 174q-31 0 -41 -22q-7 -14 -7 -52q0 -35 7 -48q11 -20 41 -20t41 23
q8 19 8 52q0 67 -49 67zM417 149h64q-42 -51 -48 -113h32q14 76 45 116v19h-93v-22zM539 149h65q-39 -53 -45 -113h32q5 67 45 116v19h-97v-22zM165 149h64q-39 -53 -45 -113h32q7 68 46 116v19h-97v-22zM320 110q0 45 19 45q3 0 9 -2q7 -4 7 -40v-16q0 -17 -2 -33
q-5 -12 -14 -12q-19 0 -19 42v16z" />
    <glyph glyph-name="m" unicode="m" 
d="M801 0h-801v801h801v-801zM336 720v-32h129v32h-129zM339 672q-68 -41 -68 -113q0 -53 38 -91t92 -38q53 0 91 38t38 91q0 72 -68 113h-123zM714 652l-162 -42q7 -14 7 -25l161 45zM242 585q0 11 7 25l-162 42l-6 -22zM252 504q-7 13 -7 22l-164 -45l6 -22zM559 526
q-6 -17 -10 -22l165 -45l6 22zM300 436q-13 13 -19 16l-197 -197l16 -16zM520 452q-6 -3 -19 -16l200 -197l16 16zM371 404q-10 0 -22 6l-45 -168l22 -6zM452 410q-12 -6 -22 -6l45 -168l22 6zM291 74q0 -42 45 -42q48 0 48 42q0 33 -25 33v3q22 0 22 29q0 35 -45 35
q-42 0 -42 -42h26q0 23 16 23t16 -16q0 -23 -19 -23h-10v-19h13q19 0 19 -23q0 -22 -19 -22q-16 0 -16 26h-29v-4zM452 58q0 8 16 20l17 16q22 21 22 42q0 38 -45 38t-45 -38v-7h29q0 26 16 26t16 -16t-16 -32l-13 -10q-32 -26 -32 -61h93v22h-58zM588 174q-31 0 -41 -22
q-8 -19 -8 -52q0 -68 49 -68q30 0 41 23q7 13 7 52q0 67 -48 67zM165 149h64q-39 -53 -45 -113h32q7 68 46 116v19h-97v-22zM572 110q0 45 16 45q3 0 9 -2q7 -4 7 -40v-16q0 -17 -2 -33q-4 -12 -14 -12q-3 0 -9 2q-7 4 -7 40v16z" />
    <glyph glyph-name="n" unicode="n" 
d="M801 0h-801v801h801v-801zM336 720v-32h129v32h-129zM339 672q-68 -41 -68 -113q0 -53 38 -91t92 -38q53 0 91 38t38 91q0 72 -68 113h-123zM714 652l-162 -42q7 -14 7 -25l161 45zM242 585q0 11 7 25l-162 42l-6 -22zM252 504q-7 13 -7 22l-164 -45l6 -22zM559 526
q-6 -17 -10 -22l165 -45l6 22zM300 436q-13 13 -19 16l-197 -197l16 -16zM520 452q-6 -3 -19 -16l200 -197l16 16zM371 404q-10 0 -22 6l-45 -168l22 -6zM452 410q-12 -6 -22 -6l45 -168l22 6zM291 74q0 -42 45 -42q48 0 48 42q0 33 -25 33v3q22 0 22 29q0 35 -45 35
q-42 0 -42 -42h26q0 23 16 23t16 -16q0 -23 -19 -23h-10v-19h13q19 0 19 -23q0 -22 -19 -22q-16 0 -16 26h-29v-4zM452 58q0 8 16 20l17 16q22 21 22 42q0 38 -45 38t-45 -38v-7h29q0 26 16 26t16 -16t-16 -32l-13 -10q-32 -26 -32 -61h93v22h-58zM578 58q0 7 13 20l19 16
q23 20 23 42q0 38 -45 38q-49 0 -49 -38v-7h29q4 17 6 19q3 7 14 7q13 0 13 -16q0 -19 -16 -32l-10 -10q-36 -30 -36 -61h94v22h-55zM165 149h64q-39 -53 -45 -113h32q7 68 46 116v19h-97v-22z" />
    <glyph glyph-name="o" unicode="o" 
d="M801 0h-801v801h801v-801zM336 720v-32h129v32h-129zM339 672q-68 -41 -68 -113q0 -53 38 -91t92 -38q53 0 91 38t38 91q0 72 -68 113h-123zM714 652l-162 -42q7 -14 7 -25l161 45zM242 585q0 11 7 25l-162 42l-6 -22zM252 504q-7 13 -7 22l-164 -45l6 -22zM559 526
q-6 -17 -10 -22l165 -45l6 22zM300 436q-13 13 -19 16l-197 -197l16 -16zM520 452q-6 -3 -19 -16l200 -197l16 16zM371 404q-10 0 -22 6l-45 -168l22 -6zM452 410q-12 -6 -22 -6l45 -168l22 6zM291 74q0 -42 45 -42q48 0 48 42q0 33 -25 33v3q22 0 22 29q0 35 -45 35
q-42 0 -42 -42h26q0 23 16 23t16 -16q0 -23 -19 -23h-10v-19h13q19 0 19 -23q0 -22 -19 -22q-16 0 -16 26h-29v-4zM452 58q0 8 16 20l17 16q22 21 22 42q0 38 -45 38t-45 -38v-7h29q0 26 16 26t16 -16t-16 -32l-13 -10q-32 -26 -32 -61h93v22h-58zM543 68q0 -36 42 -36
q35 0 45 24q6 15 6 54q0 64 -48 64q-49 0 -49 -48q0 -45 39 -45q20 0 26 13v-7q0 -35 -16 -35t-16 16h-29zM165 149h64q-39 -53 -45 -113h32q7 68 46 116v19h-97v-22zM588 103q-16 0 -16 26t16 26t16 -26t-16 -26z" />
    <glyph glyph-name="p" unicode="p" 
d="M801 0h-801v801h801v-801zM336 720v-32h129v32h-129zM339 672q-68 -41 -68 -113q0 -53 38 -91t92 -38q53 0 91 38t38 91q0 72 -68 113h-123zM714 652l-162 -42q7 -14 7 -25l161 45zM242 585q0 11 7 25l-162 42l-6 -22zM252 504q-7 13 -7 22l-164 -45l6 -22zM559 526
q-6 -17 -10 -22l165 -45l6 22zM300 436q-13 13 -19 16l-197 -197l16 -16zM520 452q-6 -3 -19 -16l200 -197l16 16zM371 404q-10 0 -22 6l-45 -168l22 -6zM452 410q-12 -6 -22 -6l45 -168l22 6zM291 74q0 -42 45 -42q48 0 48 42q0 33 -25 33v3q22 0 22 29q0 35 -45 35
q-42 0 -42 -42h26q0 23 16 23t16 -16q0 -23 -19 -23h-10v-19h13q19 0 19 -23q0 -22 -19 -22q-16 0 -16 26h-29v-4zM417 74q0 -42 42 -42q51 0 51 42q0 33 -25 33v3q22 0 22 29q0 35 -45 35t-45 -42h29q0 23 16 23t16 -16q0 -23 -19 -23h-10v-19h10q19 0 19 -23
q0 -22 -16 -22t-16 26h-29v-4zM588 174q-31 0 -41 -22q-8 -19 -8 -52q0 -68 49 -68q30 0 41 23q7 13 7 52q0 67 -48 67zM165 149h64q-39 -53 -45 -113h32q7 68 46 116v19h-97v-22zM572 110q0 45 16 45q3 0 9 -2q7 -4 7 -40v-16q0 -17 -2 -33q-4 -12 -14 -12q-3 0 -9 2
q-7 4 -7 40v16z" />
    <glyph glyph-name="q" unicode="q" 
d="M801 0h-801v801h801v-801zM336 720v-32h129v32h-129zM339 672q-68 -41 -68 -113q0 -53 38 -91t92 -38q53 0 91 38t38 91q0 72 -68 113h-123zM714 652l-162 -42q7 -14 7 -25l161 45zM242 585q0 11 7 25l-162 42l-6 -22zM252 504q-7 13 -7 22l-164 -45l6 -22zM559 526
q-6 -17 -10 -22l165 -45l6 22zM300 436q-13 13 -19 16l-197 -197l16 -16zM520 452q-6 -3 -19 -16l200 -197l16 16zM371 404q-10 0 -22 6l-45 -168l22 -6zM452 410q-12 -6 -22 -6l45 -168l22 6zM291 74q0 -42 45 -42q48 0 48 42q0 33 -25 33v3q22 0 22 29q0 35 -45 35
q-42 0 -42 -42h26q0 23 16 23t16 -16q0 -23 -19 -23h-10v-19h13q19 0 19 -23q0 -22 -19 -22q-16 0 -16 26h-29v-4zM417 74q0 -42 42 -42q51 0 51 42q0 33 -25 33v3q22 0 22 29q0 35 -45 35t-45 -42h29q0 23 16 23t16 -16q0 -23 -19 -23h-10v-19h10q19 0 19 -23
q0 -22 -16 -22t-16 26h-29v-4zM165 149h64q-39 -53 -45 -113h32q7 68 46 116v19h-97v-22zM549 171l-6 -74h29q0 13 13 13q19 0 19 -29t-19 -29q-17 0 -17 22h-29v-3q0 -39 46 -39q48 0 48 52q0 45 -35 45q-20 0 -30 -9l4 32h55v19h-78z" />
    <glyph glyph-name="r" unicode="r" 
d="M801 0h-801v801h801v-801zM336 720v-32h129v32h-129zM339 672q-68 -41 -68 -113q0 -53 38 -91t92 -38q53 0 91 38t38 91q0 72 -68 113h-123zM714 652l-162 -42q7 -14 7 -25l161 45zM242 585q0 11 7 25l-162 42l-6 -22zM252 504q-7 13 -7 22l-164 -45l6 -22zM559 526
q-6 -17 -10 -22l165 -45l6 22zM300 436q-13 13 -19 16l-197 -197l16 -16zM520 452q-6 -3 -19 -16l200 -197l16 16zM371 404q-10 0 -22 6l-45 -168l22 -6zM452 410q-12 -6 -22 -6l45 -168l22 6zM291 74q0 -42 45 -42q48 0 48 42q0 33 -25 33v3q22 0 22 29q0 35 -45 35
q-42 0 -42 -42h26q0 23 16 23t16 -16q0 -23 -19 -23h-10v-19h13q19 0 19 -23q0 -22 -19 -22q-16 0 -16 26h-29v-4zM417 74q0 -42 42 -42q51 0 51 42q0 33 -25 33v3q22 0 22 29q0 35 -45 35t-45 -42h29q0 23 16 23t16 -16q0 -23 -19 -23h-10v-19h10q19 0 19 -23
q0 -22 -16 -22t-16 26h-29v-4zM539 74q0 -42 46 -42q51 0 51 42q0 33 -29 33v3q23 0 23 29q0 35 -42 35q-45 0 -45 -42h29q0 23 16 23q13 0 13 -16q0 -23 -16 -23h-10v-19h10q19 0 19 -23q0 -22 -16 -22t-16 26h-33v-4zM165 149h64q-39 -53 -45 -113h32q7 68 46 116v19h-97
v-22z" />
    <glyph glyph-name="s" unicode="s" 
d="M801 0h-801v801h801v-801zM336 720v-32h129v32h-129zM339 672q-68 -41 -68 -113q0 -53 38 -91t92 -38q53 0 91 38t38 91q0 72 -68 113h-123zM714 652l-162 -42q7 -14 7 -25l161 45zM242 585q0 11 7 25l-162 42l-6 -22zM252 504q-7 13 -7 22l-164 -45l6 -22zM559 526
q-6 -17 -10 -22l165 -45l6 22zM300 436q-13 13 -19 16l-197 -197l16 -16zM520 452q-6 -3 -19 -16l200 -197l16 16zM452 410q-12 -6 -22 -6l45 -168l22 6zM371 404q-10 0 -22 6l-45 -168l22 -6zM594 65v-29h29v29h13v22h-13v87h-32l-52 -87v-22h55zM339 174q-31 0 -41 -22
q-7 -14 -7 -52q0 -35 7 -48q11 -20 41 -20t41 23q8 19 8 52q0 67 -49 67zM417 149h64q-42 -51 -48 -113h32q14 76 45 116v19h-93v-22zM165 149h64q-39 -53 -45 -113h32q7 68 46 116v19h-97v-22zM320 110q0 45 19 45q3 0 9 -2q7 -4 7 -40v-16q0 -17 -2 -33q-5 -12 -14 -12
q-19 0 -19 42v16zM562 87l32 52v-52h-32z" />
    <glyph glyph-name="t" unicode="t" 
d="M801 0h-801v801h801v-801zM336 720v-32h129v32h-129zM339 672q-68 -41 -68 -113q0 -53 38 -91t92 -38q53 0 91 38t38 91q0 72 -68 113h-123zM714 652l-162 -42q7 -14 7 -25l161 45zM242 585q0 11 7 25l-162 42l-6 -22zM252 504q-7 13 -7 22l-164 -45l6 -22zM559 526
q-6 -17 -10 -22l165 -45l6 22zM300 436q-13 13 -19 16l-197 -197l16 -16zM520 452q-6 -3 -19 -16l200 -197l16 16zM371 404q-10 0 -22 6l-45 -168l22 -6zM452 410q-12 -6 -22 -6l45 -168l22 6zM291 74q0 -42 45 -42q48 0 48 42q0 33 -25 33v3q22 0 22 29q0 35 -45 35
q-42 0 -42 -42h26q0 23 16 23t16 -16q0 -23 -19 -23h-10v-19h13q19 0 19 -23q0 -22 -19 -22q-16 0 -16 26h-29v-4zM452 58q0 8 16 20l17 16q22 21 22 42q0 38 -45 38t-45 -38v-7h29q0 26 16 26t16 -16t-16 -32l-13 -10q-32 -26 -32 -61h93v22h-58zM539 74q0 -42 46 -42
q51 0 51 42q0 33 -29 33v3q23 0 23 29q0 35 -42 35q-45 0 -45 -42h29q0 23 16 23q13 0 13 -16q0 -23 -16 -23h-10v-19h10q19 0 19 -23q0 -22 -16 -22t-16 26h-33v-4zM165 149h64q-39 -53 -45 -113h32q7 68 46 116v19h-97v-22z" />
    <glyph glyph-name="u" unicode="u" 
d="M801 0h-801v801h801v-801zM336 720v-32h129v32h-129zM339 672q-68 -41 -68 -113q0 -53 38 -91t92 -38q53 0 91 38t38 91q0 72 -68 113h-123zM714 652l-162 -42q7 -14 7 -25l161 45zM242 585q0 11 7 25l-162 42l-6 -22zM252 504q-7 13 -7 22l-164 -45l6 -22zM559 526
q-6 -17 -10 -22l165 -45l6 22zM300 436q-13 13 -19 16l-197 -197l16 -16zM520 452q-6 -3 -19 -16l200 -197l16 16zM371 404q-10 0 -22 6l-45 -168l22 -6zM452 410q-12 -6 -22 -6l45 -168l22 6zM481 174h-22q-7 -22 -36 -22h-3v-20h29v-96h32v138zM291 74q0 -42 45 -42
q48 0 48 42q0 33 -25 33v3q22 0 22 29q0 35 -45 35q-42 0 -42 -42h26q0 23 16 23t16 -16q0 -23 -19 -23h-10v-19h13q19 0 19 -23q0 -22 -19 -22q-16 0 -16 26h-29v-4zM539 149h65q-39 -53 -45 -113h32q5 67 45 116v19h-97v-22zM165 149h64q-39 -53 -45 -113h32q7 68 46 116
v19h-97v-22z" />
    <glyph glyph-name="v" unicode="v" 
d="M801 0h-801v801h801v-801zM336 720v-32h129v32h-129zM339 672q-68 -41 -68 -113q0 -53 38 -91t92 -38q53 0 91 38t38 91q0 72 -68 113h-123zM714 652l-162 -42q7 -14 7 -25l161 45zM242 585q0 11 7 25l-162 42l-6 -22zM252 504q-7 13 -7 22l-164 -45l6 -22zM559 526
q-6 -17 -10 -22l165 -45l6 22zM300 436q-13 13 -19 16l-197 -197l16 -16zM520 452q-6 -3 -19 -16l200 -197l16 16zM452 410q-12 -6 -22 -6l45 -168l22 6zM371 404q-10 0 -22 6l-45 -168l22 -6zM481 174h-22q-7 -22 -36 -22h-3v-20h29v-96h32v138zM291 74q0 -42 45 -42
q48 0 48 42q0 33 -25 33v3q22 0 22 29q0 35 -45 35q-42 0 -42 -42h26q0 23 16 23t16 -16q0 -23 -19 -23h-10v-19h13q19 0 19 -23q0 -22 -19 -22q-16 0 -16 26h-29v-4zM565 110q-26 -5 -26 -36q0 -42 49 -42q48 0 48 42q0 31 -26 36q23 5 23 26q0 38 -45 38t-45 -38
q0 -22 22 -26zM165 149h64q-39 -53 -45 -113h32q7 68 46 116v19h-97v-22zM604 139q0 -23 -16 -23t-16 23q0 16 16 16t16 -16zM604 74q0 -22 -16 -22t-16 22q0 26 16 26t16 -26z" />
    <glyph glyph-name="w" unicode="w" 
d="M801 0h-801v801h801v-801zM336 720v-32h129v32h-129zM339 672q-68 -41 -68 -113q0 -53 38 -91t92 -38q53 0 91 38t38 91q0 72 -68 113h-123zM714 652l-162 -42q7 -14 7 -25l161 45zM242 585q0 11 7 25l-162 42l-6 -22zM252 504q-7 13 -7 22l-164 -45l6 -22zM559 526
q-6 -17 -10 -22l165 -45l6 22zM300 436q-13 13 -19 16l-197 -197l16 -16zM520 452q-6 -3 -19 -16l200 -197l16 16zM452 410q-12 -6 -22 -6l45 -168l22 6zM371 404q-10 0 -22 6l-45 -168l22 -6zM481 174h-22q-7 -22 -36 -22h-3v-20h29v-96h32v138zM291 74q0 -42 45 -42
q48 0 48 42q0 33 -25 33v3q22 0 22 29q0 35 -45 35q-42 0 -42 -42h26q0 23 16 23t16 -16q0 -23 -19 -23h-10v-19h13q19 0 19 -23q0 -22 -19 -22q-16 0 -16 26h-29v-4zM633 139q0 35 -42 35q-34 0 -45 -23q-7 -15 -7 -54q0 -65 49 -65q48 0 48 52q0 42 -35 42q-25 0 -29 -13
v7q0 35 19 35q13 0 13 -16h29zM165 149h64q-39 -53 -45 -113h32q7 68 46 116v19h-97v-22zM604 78q0 -26 -16 -26t-16 26q0 29 16 29t16 -29z" />
    <glyph glyph-name="x" unicode="x" 
d="M801 0h-801v801h801v-801zM336 720v-32h129v32h-129zM339 672q-68 -41 -68 -113q0 -53 38 -91t92 -38q53 0 91 38t38 91q0 72 -68 113h-123zM714 652l-162 -42q7 -14 7 -25l161 45zM242 585q0 11 7 25l-162 42l-6 -22zM252 504q-7 13 -7 22l-164 -45l6 -22zM559 526
q-6 -17 -10 -22l165 -45l6 22zM300 436q-13 13 -19 16l-197 -197l16 -16zM520 452q-6 -3 -19 -16l200 -197l16 16zM452 410q-12 -6 -22 -6l45 -168l22 6zM371 404q-10 0 -22 6l-45 -168l22 -6zM420 174h-23q-4 -22 -35 -22h-3v-20h29v-96h32v138zM229 74q0 -42 42 -42
q52 0 52 42q0 33 -26 33v3q23 0 23 29q0 35 -45 35q-46 0 -46 -42h29q0 23 17 23q16 0 16 -16q0 -23 -20 -23h-9v-19h9q20 0 20 -23q0 -22 -16 -22q-17 0 -17 26h-29v-4zM649 174q-30 0 -39 -22q-6 -14 -6 -52q0 -34 7 -47q11 -21 38 -21q30 0 41 23q8 19 8 52q0 34 -8 48
q-10 19 -41 19zM103 149h65q-36 -48 -48 -113h32q12 75 45 116v19h-94v-22zM488 171l-7 -74h26q7 13 16 13q16 0 16 -29t-16 -29t-16 22h-29v-3q0 -39 45 -39q49 0 49 52q0 45 -39 45q-15 0 -26 -9l3 32h55v19h-77zM633 110q0 45 16 45q20 0 20 -42v-16q0 -45 -20 -45
q-3 0 -9 2q-7 4 -7 40v16z" />
    <glyph glyph-name="y" unicode="y" horiz-adv-x="951" 
d="M801 0h-801v801h801v-801zM336 720v-32h129v32h-129zM339 672q-68 -41 -68 -113q0 -53 38 -91t92 -38q53 0 91 38t38 91q0 72 -68 113h-123zM714 652l-162 -42q7 -14 7 -25l161 45zM242 585q0 11 7 25l-162 42l-6 -22zM252 504q-7 13 -7 22l-164 -45l6 -22zM559 526
q-6 -17 -10 -22l165 -45l6 22zM300 436q-13 13 -19 16l-197 -197l16 -16zM520 452q-6 -3 -19 -16l200 -197l16 16zM371 404q-10 0 -22 6l-45 -168l22 -6zM452 410q-12 -6 -22 -6l45 -168l22 6zM420 174h-23q-4 -22 -35 -22h-3v-20h29v-96h32v138zM229 74q0 -42 42 -42
q52 0 52 42q0 33 -26 33v3q23 0 23 29q0 35 -45 35q-46 0 -46 -42h29q0 23 17 23q16 0 16 -16q0 -23 -20 -23h-9v-19h9q20 0 20 -23q0 -22 -16 -22q-17 0 -17 26h-29v-4zM533 65v-29h26v29h16v22h-16v87h-33l-48 -87v-22h55zM649 174q-30 0 -39 -22q-6 -14 -6 -52
q0 -34 7 -47q11 -21 38 -21q30 0 41 23q8 19 8 52q0 34 -8 48q-10 19 -41 19zM103 149h65q-36 -48 -48 -113h32q12 75 45 116v19h-94v-22zM633 110q0 45 16 45q20 0 20 -42v-16q0 -45 -20 -45q-3 0 -9 2q-7 4 -7 40v16zM501 87l29 52h3v-52h-32z" />
    <glyph glyph-name="z" unicode="z" 
d="M801 0h-801v801h801v-801zM336 720v-32h129v32h-129zM339 672q-68 -41 -68 -113q0 -53 38 -91t92 -38q53 0 91 38t38 91q0 72 -68 113h-123zM714 652l-162 -42q7 -14 7 -25l161 45zM242 585q0 11 7 25l-162 42l-6 -22zM252 504q-7 13 -7 22l-164 -45l6 -22zM559 526
q-6 -17 -10 -22l165 -45l6 22zM300 436q-13 13 -19 16l-197 -197l16 -16zM520 452q-6 -3 -19 -16l200 -197l16 16zM371 404q-10 0 -22 6l-45 -168l22 -6zM452 410q-12 -6 -22 -6l45 -168l22 6zM420 174h-23q-4 -22 -35 -22h-3v-20h29v-96h32v138zM229 74q0 -42 42 -42
q52 0 52 42q0 33 -26 33v3q23 0 23 29q0 35 -45 35q-46 0 -46 -42h29q0 23 17 23q16 0 16 -16q0 -23 -20 -23h-9v-19h9q20 0 20 -23q0 -22 -16 -22q-17 0 -17 26h-29v-4zM103 149h65q-36 -48 -48 -113h32q12 75 45 116v19h-94v-22zM488 171l-7 -74h26q7 13 16 13
q16 0 16 -29t-16 -29t-16 22h-29v-3q0 -39 45 -39q49 0 49 52q0 45 -39 45q-15 0 -26 -9l3 32h55v19h-77zM610 171l-6 -74h29q0 13 16 13t16 -29t-19 -29q-13 0 -13 22h-29v-3q0 -39 45 -39q49 0 49 52q0 45 -39 45q-20 0 -29 -9l3 32h58v19h-81z" />
    <glyph glyph-name="braceleft" unicode="{" 
d="M0 802h802v-802h-802v802zM786 786h-770v-770h770v770zM459 528q-22 5 -26 48q-1 16 -1 29q0 32 7 48q7 15 29 16h7q20 0 28 -11t9 -52v-12q0 -29 -4.5 -44.5t-17.5 -20.5q-9 -3 -18 -3q-7 0 -13 2zM547 528q-22 5 -26 48q-1 16 -1 29q0 32 7 48q7 15 29 16h7
q20 0 28 -11t9 -52v-12q0 -29 -4.5 -44.5t-17.5 -20.5q-9 -3 -18 -3q-7 0 -13 2zM222 581q0 54 -1 54q-2 -2 -7 -6q-1 0 -2 -1l-7 -5q-1 0 -2 -1l-5 -3v26l8 5q7 5 14 11l6 6h26v-139h-30v53zM372 581q0 54 -1 54q-2 -2 -7 -6q-8 -6 -11 -7l-5 -3v26l8 5q7 5 14 11l6 6h26
v-139h-30v53zM478 549q3 2 5 19q1 7 1 39q0 27 -2 33q0 9 -11 9q-6 -2 -9 -7q-1 -2 -1 -38v-12q0 -40 6 -44q3 -2 5 -2q3 0 6 3zM566 549q5 3 6 19v39q0 30 -1 33q-2 9 -12 9q-6 -2 -9 -7q-1 -2 -1 -38v-12q0 -40 6 -44q3 -2 5 -2q3 0 6 3zM287 603v27h24v-27h-24zM287 528
v27h24v-27h-24zM271 143v-23q0 -23 -1 -23l-11 3q-11 2 -40.5 9t-59.5 14q-61 15 -84.5 21t-23.5 7v0l220 54v-47h260v23q0 24 1 24l109 -27q109 -27 110 -27l-3 -1q-3 -1 -11 -3t-17 -4.5t-25.5 -6.5t-31.5 -8l-132 -32v47h-260z" />
    <glyph glyph-name="bar" unicode="|" 
d="M0 802h802v-802h-802v802zM786 786h-770v-770h770v770zM415 528q-26 6 -26 37v5q1 22 15 30l4 2l-4 2q-14 6 -14 29t15 31q9 5 21 5h7q16 -2 23 -7q12 -9 12 -27v-6q-1 -19 -12 -24l-6 -3l5 -3q12 -7 14 -31v-4q0 -18 -9 -27q-6 -7 -18 -10q-6 -1 -12 -1q-8 0 -15 2z
M268 581q0 54 -1 54q-2 -2 -7 -6q-1 0 -2 -1l-7 -5q-1 0 -2 -1l-5 -3v26l8 5q8 5 14 11l6 6h26v-139h-30v53zM527 643q0 2 -3 2h-44v22h75v-26l-34 -112h-16l-16 -1zM436 616q3 3 3.5 8.5t0.5 7.5q0 8 -3 12q-2 5 -8 5q-11 0 -11 -16v-5q2 -12 6 -15q3 -1 5 -1q4 0 7 4z
M333 603v27h24v-27h-24zM435 548q6 4 6 20v5q0 8 -3 13t-8 5l-3.5 -0.5t-7.5 -5.5q-2 -5 -2 -18t4 -17t8 -4q3 0 6 2zM333 528v27h24v-27h-24zM271 143v-23q0 -23 -1 -23l-11 3q-11 2 -40.5 9t-59.5 14q-61 15 -84.5 21t-23.5 7v0l220 54v-47h260v23q0 24 1 24l109 -27
q109 -27 110 -27l-3 -1q-3 -1 -11 -3t-17 -4.5t-25.5 -6.5t-31.5 -8l-132 -32v47h-260z" />
    <glyph glyph-name="braceright" unicode="}" 
d="M0 802h802v-802h-802v802zM786 786h-770v-770h770v770zM345 528q-22 5 -23 27l-1 6h28l1 -4q1 -9 7 -10h3q9 0 11 12q0 3 0.5 10.5t0.5 14.5l-1 6l-3 -3q-9 -6 -18 -6q-6 0 -16 5t-13 23q-2 6 -2 13q0 9 3 19q6 20 21 26q6 2 18 2t17 -3q14 -4 19 -28q3 -11 3 -41
q0 -39 -6 -50q-9 -20 -34 -20h-2q-9 0 -13 1zM431 528q-22 5 -23 27q0 6 -1 8v3h28l1 -7q1 -12 10 -12h2q12 3 13 21q0 14 -4 17q-5 5 -18 5h-4v21l6 1q14 2 15 7q2 4 2 11v5q0 12 -9 14h-2q-5 0 -8 -4q-1 -1 -1 -7l-1 -5h-28v2q0 20 10 27q8 6 28 6q5 1 9 1q19 0 25 -12.5
t6 -23.5q0 -10 -4 -21q-4 -10 -11 -10h-1q0 -1 4 -3q1 -1 3 -2q11 -6 11 -27v-7q-2 -26 -23 -34q-9 -3 -18 -3q-8 0 -17 2zM566 528q-14 3 -19 14q-4 7 -4 16v3h14q12 0 14 -2l1 -5q0 -7 9 -7q8 0 10.5 5.5t2.5 21.5q0 26 -11 28h-2q-4 0 -6 -2.5t-3 -9.5l-1 -3h-26v80h72
v-22h-46v-17l1 -16l3 2q6 6 16 6q6 0 12 -2q19 -6 19 -45v-4v-3q0 -25 -13 -32t-28 -7q-7 0 -15 1zM199 581q0 54 -1 54q-2 -2 -7 -6q-1 0 -2 -1l-7 -5q-1 0 -2 -1l-5 -3v26l8 5q8 5 14 11l6 6h26v-139h-30v53zM367 603q5 4 5.5 13t0.5 10q0 15 -5 20q-4 4 -8 4
q-1 0 -4 -0.5t-5 -5.5q-4 -7 -4 -17q0 -8 3 -18q2 -9 8 -9h3q5 2 6 3zM264 603v27h24v-27h-24zM264 528v27h24v-27h-24zM498 512q1 1 4 22l4 20h24q2 0 2 -1l-15 -44h-19v3zM271 143v-23q0 -23 -1 -23l-11 3q-11 2 -40.5 9t-59.5 14q-61 15 -84.5 21t-23.5 7v0l220 54v-47
h260v23q0 24 1 24l109 -27q109 -27 110 -27l-3 -1q-3 -1 -11 -3t-17 -4.5t-25.5 -6.5t-31.5 -8l-132 -32v47h-260z" />
    <glyph glyph-name="section" unicode="&#xa7;" horiz-adv-x="954" 
d="M804 804v-804h-804v804h804zM16 787v-771h772v771h-772zM426 262q-67 0 -88 47q-13 30 -13 105t13 105q21 47 88 47q86 0 86 -88v-10h-60q0 54 -26 54q-23 0 -32 -26q-7 -22 -7 -82t7 -82q9 -26 32 -26q19 0 25 21q1 5 3 39h61q0 -104 -89 -104zM653 262q-68 0 -89 47
q-13 30 -13 105t13 105q21 47 89 47q85 0 85 -88v-10h-60q0 54 -25 54t-33 -26q-6 -21 -6 -82t6 -82q8 -26 33 -26q18 0 24 21q3 14 4 39h61q0 -104 -89 -104zM80 561h103q57 0 78 -38q18 -31 18 -107q0 -68 -10 -92q-21 -57 -88 -57h-101v294zM142 312h30q32 0 41 38
q3 16 3 64q0 53 -5 71q-9 31 -37 31h-32v-204z" />
    <glyph glyph-name="udieresis" unicode="&#xfc;" 
d="M801 0h-801v801h801v-801zM336 720v-32h129v32h-129zM339 673q-68 -41 -68 -113q0 -53 38 -91t92 -38q53 0 91 38t38 91q0 72 -68 113h-123zM714 652l-162 -42q7 -14 7 -25l161 45zM242 585q0 11 7 25l-162 42l-6 -22zM252 504q-7 13 -7 22l-164 -45l6 -22zM559 526
q-6 -17 -10 -22l165 -45l6 22zM300 436q-13 13 -19 16l-197 -197l16 -16zM520 452q-6 -3 -19 -16l200 -197l16 16zM452 410q-12 -6 -22 -6l45 -168l22 6zM371 404q-10 0 -22 6l-45 -168l22 -6zM394 65v-29h29v29h13v22h-13v87h-32l-52 -87v-22h55zM529 174q-31 0 -41 -22
q-7 -14 -7 -52q0 -35 7 -48q11 -20 41 -20t41 23q8 19 8 52q0 67 -49 67zM199 74q0 -42 46 -42q51 0 51 42q0 33 -29 33v3q23 0 23 29q0 35 -42 35q-45 0 -45 -42h29q0 23 16 23q13 0 13 -16q0 -23 -16 -23h-10v-19h10q19 0 19 -23q0 -22 -16 -22t-16 26h-33v-4zM669 174
q-31 0 -41 -22q-7 -14 -7 -52q0 -35 7 -48q11 -20 41 -20t41 23q8 19 8 52q0 67 -49 67zM75 149h64q-39 -53 -45 -113h32q7 68 46 116v19h-97v-22zM510 110q0 45 19 45q3 0 9 -2q7 -4 7 -40v-16q0 -17 -2 -33q-5 -12 -14 -12q-19 0 -19 42v16zM650 110q0 45 19 45q3 0 9 -2
q7 -4 7 -40v-16q0 -17 -2 -33q-5 -12 -14 -12q-19 0 -19 42v16zM362 87l32 52v-52h-32z" />
    <glyph glyph-name="degree" unicode="&#xb0;" 
d="M0 0v801h801v-801h-801zM294 720l-23 -3l78 -293q12 6 23 6zM508 720l-78 -290q10 0 23 -6l77 293zM100 594l-16 -16l197 -200l20 20zM717 578l-16 16l-200 -196l20 -20zM462 161q68 41 68 114q0 27 -10 50.5t-27.5 41t-41 27.5t-50.5 10t-50.5 -10t-41 -27.5t-28 -41
t-10.5 -50.5q0 -74 68 -114h123zM720 352l-6 23l-164 -45q2 -8 4 -13t2 -10zM242 307q1 2 3.5 7.5t6.5 15.5l-165 45l-6 -23zM714 181l6 23l-161 45q0 -8 -6 -26zM87 181l162 42q-7 18 -7 26l-161 -45zM466 81v64h-130v-64h130zM466 42v23h-130v-23h130z" />
    <glyph glyph-name="NULL.1" horiz-adv-x="0" 
 />
    <glyph glyph-name="uni000D.1" horiz-adv-x="333" 
 />
    <glyph glyph-name="HT" horiz-adv-x="500" 
 />
    <glyph glyph-name="uni000D.001" horiz-adv-x="500" 
 />
    <glyph glyph-name="glyph75" horiz-adv-x="500" 
 />
    <glyph glyph-name="adieresis" unicode="&#xe4;" 
 />
  </font>
</defs>
</svg>
